G04 Layer: TopSilkLayer*
G04 EasyEDA v6.4.25, 2021-09-17T16:21:59--7:00*
G04 8dbd8d05a4bf401dbff3891acb08e7ed,1286d1f709c949e68cfeef46812bcf49,10*
G04 Gerber Generator version 0.2*
G04 Scale: 100 percent, Rotated: No, Reflected: No *
G04 Dimensions in millimeters *
G04 leading zeros omitted , absolute positions ,4 integer and 5 decimal *
%FSLAX45Y45*%
%MOMM*%

%ADD10C,0.2540*%
%ADD11C,0.3000*%
%ADD23C,0.1524*%
%ADD24C,0.2032*%
%ADD25C,0.1500*%

%LPD*%
D24*
X6146987Y7215677D02*
G01*
X6146987Y7144049D01*
X6146987Y7215677D02*
G01*
X6177721Y7215677D01*
X6187881Y7212375D01*
X6191183Y7208819D01*
X6194739Y7201961D01*
X6194739Y7195103D01*
X6191183Y7188499D01*
X6187881Y7184943D01*
X6177721Y7181641D01*
X6146987Y7181641D02*
G01*
X6177721Y7181641D01*
X6187881Y7178085D01*
X6191183Y7174783D01*
X6194739Y7167925D01*
X6194739Y7157765D01*
X6191183Y7150907D01*
X6187881Y7147605D01*
X6177721Y7144049D01*
X6146987Y7144049D01*
X6171945Y7022084D02*
G01*
X6144768Y6950455D01*
X6171945Y7022084D02*
G01*
X6199377Y6950455D01*
X6154927Y6974331D02*
G01*
X6189218Y6974331D01*
X6191679Y6824398D02*
G01*
X6184821Y6831256D01*
X6174661Y6834558D01*
X6160945Y6834558D01*
X6150785Y6831256D01*
X6143927Y6824398D01*
X6143927Y6817540D01*
X6147483Y6810682D01*
X6150785Y6807380D01*
X6157643Y6804078D01*
X6177963Y6797220D01*
X6184821Y6793664D01*
X6188377Y6790362D01*
X6191679Y6783504D01*
X6191679Y6773344D01*
X6184821Y6766486D01*
X6174661Y6763184D01*
X6160945Y6763184D01*
X6150785Y6766486D01*
X6143927Y6773344D01*
X6214285Y6834558D02*
G01*
X6214285Y6763184D01*
X6214285Y6834558D02*
G01*
X6258481Y6834558D01*
X6214285Y6800522D02*
G01*
X6241463Y6800522D01*
X6214285Y6763184D02*
G01*
X6258481Y6763184D01*
X6281087Y6834558D02*
G01*
X6281087Y6763184D01*
X6281087Y6763184D02*
G01*
X6321981Y6763184D01*
D11*
X6071488Y7327874D02*
G01*
X6190868Y7327874D01*
X6071488Y7327874D02*
G01*
X6190868Y7407376D01*
X6071488Y7407376D02*
G01*
X6190868Y7407376D01*
X6071488Y7444968D02*
G01*
X6077077Y7450556D01*
X6071488Y7456398D01*
X6065900Y7450556D01*
X6071488Y7444968D01*
X6111113Y7450556D02*
G01*
X6190868Y7450556D01*
X6128384Y7562062D02*
G01*
X6116954Y7550632D01*
X6111113Y7539202D01*
X6111113Y7522184D01*
X6116954Y7510754D01*
X6128384Y7499578D01*
X6145402Y7493736D01*
X6156579Y7493736D01*
X6173850Y7499578D01*
X6185027Y7510754D01*
X6190868Y7522184D01*
X6190868Y7539202D01*
X6185027Y7550632D01*
X6173850Y7562062D01*
X6145402Y7599400D02*
G01*
X6145402Y7667726D01*
X6133972Y7667726D01*
X6122543Y7661884D01*
X6116954Y7656296D01*
X6111113Y7644866D01*
X6111113Y7627848D01*
X6116954Y7616418D01*
X6128384Y7605242D01*
X6145402Y7599400D01*
X6156579Y7599400D01*
X6173850Y7605242D01*
X6185027Y7616418D01*
X6190868Y7627848D01*
X6190868Y7644866D01*
X6185027Y7656296D01*
X6173850Y7667726D01*
X6071488Y7705064D02*
G01*
X6190868Y7705064D01*
X6071488Y7705064D02*
G01*
X6190868Y7750530D01*
X6071488Y7795996D02*
G01*
X6190868Y7750530D01*
X6071488Y7795996D02*
G01*
X6190868Y7795996D01*
X6071488Y7833588D02*
G01*
X6077077Y7839176D01*
X6071488Y7845018D01*
X6065900Y7839176D01*
X6071488Y7833588D01*
X6111113Y7839176D02*
G01*
X6190868Y7839176D01*
X6071488Y7899374D02*
G01*
X6168009Y7899374D01*
X6185027Y7905216D01*
X6190868Y7916646D01*
X6190868Y7927822D01*
X6111113Y7882356D02*
G01*
X6111113Y7922234D01*
X6128384Y8033486D02*
G01*
X6116954Y8022310D01*
X6111113Y8010880D01*
X6111113Y7993862D01*
X6116954Y7982432D01*
X6128384Y7971002D01*
X6145402Y7965414D01*
X6156579Y7965414D01*
X6173850Y7971002D01*
X6185027Y7982432D01*
X6190868Y7993862D01*
X6190868Y8010880D01*
X6185027Y8022310D01*
X6173850Y8033486D01*
X6071488Y8071078D02*
G01*
X6190868Y8071078D01*
X6133972Y8071078D02*
G01*
X6116954Y8088096D01*
X6111113Y8099526D01*
X6111113Y8116544D01*
X6116954Y8127974D01*
X6133972Y8133562D01*
X6190868Y8133562D01*
X6111113Y8326856D02*
G01*
X6202045Y8326856D01*
X6219316Y8321014D01*
X6224904Y8315426D01*
X6230493Y8303996D01*
X6230493Y8286978D01*
X6224904Y8275548D01*
X6128384Y8326856D02*
G01*
X6116954Y8315426D01*
X6111113Y8303996D01*
X6111113Y8286978D01*
X6116954Y8275548D01*
X6128384Y8264372D01*
X6145402Y8258530D01*
X6156579Y8258530D01*
X6173850Y8264372D01*
X6185027Y8275548D01*
X6190868Y8286978D01*
X6190868Y8303996D01*
X6185027Y8315426D01*
X6173850Y8326856D01*
X6071488Y8364194D02*
G01*
X6190868Y8364194D01*
X6128384Y8364194D02*
G01*
X6116954Y8375624D01*
X6111113Y8387054D01*
X6111113Y8404072D01*
X6116954Y8415502D01*
X6128384Y8426678D01*
X6145402Y8432520D01*
X6156579Y8432520D01*
X6173850Y8426678D01*
X6185027Y8415502D01*
X6190868Y8404072D01*
X6190868Y8387054D01*
X6185027Y8375624D01*
X6173850Y8364194D01*
X6128384Y8538184D02*
G01*
X6116954Y8526754D01*
X6111113Y8515324D01*
X6111113Y8498306D01*
X6116954Y8486876D01*
X6128384Y8475700D01*
X6145402Y8469858D01*
X6156579Y8469858D01*
X6173850Y8475700D01*
X6185027Y8486876D01*
X6190868Y8498306D01*
X6190868Y8515324D01*
X6185027Y8526754D01*
X6173850Y8538184D01*
X6071488Y8575522D02*
G01*
X6190868Y8575522D01*
X6071488Y8575522D02*
G01*
X6071488Y8626830D01*
X6077077Y8643848D01*
X6082918Y8649436D01*
X6094095Y8655278D01*
X6105525Y8655278D01*
X6116954Y8649436D01*
X6122543Y8643848D01*
X6128384Y8626830D01*
X6128384Y8575522D01*
X6128384Y8615400D02*
G01*
X6190868Y8655278D01*
X6099936Y8777960D02*
G01*
X6088506Y8772118D01*
X6077077Y8760942D01*
X6071488Y8749512D01*
X6071488Y8726652D01*
X6077077Y8715476D01*
X6088506Y8704046D01*
X6099936Y8698458D01*
X6116954Y8692616D01*
X6145402Y8692616D01*
X6162420Y8698458D01*
X6173850Y8704046D01*
X6185027Y8715476D01*
X6190868Y8726652D01*
X6190868Y8749512D01*
X6185027Y8760942D01*
X6173850Y8772118D01*
X6162420Y8777960D01*
X6145402Y8777960D01*
X6145402Y8749512D02*
G01*
X6145402Y8777960D01*
X6071488Y8815298D02*
G01*
X6190868Y8815298D01*
X6071488Y8815298D02*
G01*
X6071488Y8866606D01*
X6077077Y8883624D01*
X6082918Y8889212D01*
X6094095Y8895054D01*
X6105525Y8895054D01*
X6116954Y8889212D01*
X6122543Y8883624D01*
X6128384Y8866606D01*
X6128384Y8815298D02*
G01*
X6128384Y8866606D01*
X6133972Y8883624D01*
X6139561Y8889212D01*
X6150990Y8895054D01*
X6168009Y8895054D01*
X6179438Y8889212D01*
X6185027Y8883624D01*
X6190868Y8866606D01*
X6190868Y8815298D01*
X6111113Y9020022D02*
G01*
X6190868Y9054058D01*
X6111113Y9088094D02*
G01*
X6190868Y9054058D01*
X6094095Y9125686D02*
G01*
X6088506Y9137116D01*
X6071488Y9154134D01*
X6190868Y9154134D01*
X6162420Y9197314D02*
G01*
X6168009Y9191472D01*
X6173850Y9197314D01*
X6168009Y9202902D01*
X6162420Y9197314D01*
X6094095Y9240494D02*
G01*
X6088506Y9251670D01*
X6071488Y9268942D01*
X6190868Y9268942D01*
D23*
X9262005Y3333775D02*
G01*
X9262005Y3295675D01*
X9262005Y3333775D02*
G01*
X9278261Y3333775D01*
X9283849Y3331997D01*
X9285627Y3330219D01*
X9287405Y3326663D01*
X9287405Y3322853D01*
X9285627Y3319297D01*
X9283849Y3317519D01*
X9278261Y3315741D01*
X9262005Y3315741D01*
X9274705Y3315741D02*
G01*
X9287405Y3295675D01*
X9301375Y3324885D02*
G01*
X9301375Y3326663D01*
X9303153Y3330219D01*
X9304931Y3331997D01*
X9308487Y3333775D01*
X9315853Y3333775D01*
X9319409Y3331997D01*
X9321187Y3330219D01*
X9323219Y3326663D01*
X9323219Y3322853D01*
X9321187Y3319297D01*
X9317631Y3313963D01*
X9299343Y3295675D01*
X9324997Y3295675D01*
X11485973Y2595816D02*
G01*
X11533725Y2595816D01*
X11533725Y2595816D02*
G01*
X11533725Y2622994D01*
X11495117Y2637980D02*
G01*
X11492831Y2642552D01*
X11485973Y2649410D01*
X11533725Y2649410D01*
D25*
X11711508Y2506075D02*
G01*
X11707952Y2502773D01*
X11711508Y2499217D01*
X11714810Y2502773D01*
X11711508Y2506075D01*
D23*
X10146736Y2199673D02*
G01*
X10099238Y2199673D01*
X10099238Y2199673D02*
G01*
X10099238Y2172241D01*
X10135560Y2154969D02*
G01*
X10137846Y2154969D01*
X10142418Y2152683D01*
X10144450Y2150397D01*
X10146736Y2146079D01*
X10146736Y2136935D01*
X10144450Y2132363D01*
X10142418Y2130077D01*
X10137846Y2127791D01*
X10133274Y2127791D01*
X10128702Y2130077D01*
X10121844Y2134649D01*
X10099238Y2157255D01*
X10099238Y2125505D01*
D25*
X9926525Y2274811D02*
G01*
X9930081Y2278367D01*
X9926525Y2281669D01*
X9923223Y2278367D01*
X9926525Y2274811D01*
D23*
X9362285Y317949D02*
G01*
X9314533Y317949D01*
X9314533Y317949D02*
G01*
X9314533Y290771D01*
X9362285Y271213D02*
G01*
X9362285Y246067D01*
X9343997Y259783D01*
X9343997Y252925D01*
X9341965Y248353D01*
X9339679Y246067D01*
X9332821Y244035D01*
X9328249Y244035D01*
X9321391Y246067D01*
X9316819Y250639D01*
X9314533Y257497D01*
X9314533Y264355D01*
X9316819Y271213D01*
X9319105Y273499D01*
X9323677Y275785D01*
D25*
X9144215Y367672D02*
G01*
X9140659Y370974D01*
X9137357Y367672D01*
X9140659Y364116D01*
X9144215Y367672D01*
D23*
X8216529Y315998D02*
G01*
X8168777Y315998D01*
X8168777Y315998D02*
G01*
X8168777Y288820D01*
X8216529Y250974D02*
G01*
X8184525Y273834D01*
X8184525Y239544D01*
X8216529Y250974D02*
G01*
X8168777Y250974D01*
D25*
X7997682Y363915D02*
G01*
X8000984Y367217D01*
X7997682Y370773D01*
X7994126Y367217D01*
X7997682Y363915D01*
D23*
X6857911Y2817439D02*
G01*
X6857911Y2769687D01*
X6857911Y2769687D02*
G01*
X6885343Y2769687D01*
X6927507Y2817439D02*
G01*
X6904901Y2817439D01*
X6902615Y2797119D01*
X6904901Y2799151D01*
X6911505Y2801437D01*
X6918363Y2801437D01*
X6925221Y2799151D01*
X6929793Y2794833D01*
X6932079Y2787975D01*
X6932079Y2783403D01*
X6929793Y2776545D01*
X6925221Y2771973D01*
X6918363Y2769687D01*
X6911505Y2769687D01*
X6904901Y2771973D01*
X6902615Y2774259D01*
X6900329Y2778831D01*
D25*
X6764068Y2619667D02*
G01*
X6760766Y2622969D01*
X6757210Y2619667D01*
X6760766Y2616111D01*
X6764068Y2619667D01*
D23*
X6529572Y2405692D02*
G01*
X6481820Y2405692D01*
X6481820Y2405692D02*
G01*
X6481820Y2378260D01*
X6522714Y2336096D02*
G01*
X6527286Y2338382D01*
X6529572Y2345240D01*
X6529572Y2349812D01*
X6527286Y2356670D01*
X6520428Y2360988D01*
X6508998Y2363274D01*
X6497568Y2363274D01*
X6488678Y2360988D01*
X6484106Y2356670D01*
X6481820Y2349812D01*
X6481820Y2347526D01*
X6484106Y2340668D01*
X6488678Y2336096D01*
X6495282Y2333810D01*
X6497568Y2333810D01*
X6504426Y2336096D01*
X6508998Y2340668D01*
X6511284Y2347526D01*
X6511284Y2349812D01*
X6508998Y2356670D01*
X6504426Y2360988D01*
X6497568Y2363274D01*
D25*
X6315456Y2489964D02*
G01*
X6319011Y2493266D01*
X6315456Y2496568D01*
X6312154Y2493266D01*
X6315456Y2489964D01*
D23*
X6104054Y2739839D02*
G01*
X6104054Y2787337D01*
X6104054Y2787337D02*
G01*
X6076622Y2787337D01*
X6029886Y2739839D02*
G01*
X6052492Y2787337D01*
X6061636Y2739839D02*
G01*
X6029886Y2739839D01*
D25*
X6185400Y2945145D02*
G01*
X6188956Y2941843D01*
X6192258Y2945145D01*
X6188956Y2948701D01*
X6185400Y2945145D01*
D23*
X6453568Y3149892D02*
G01*
X6501320Y3149892D01*
X6501320Y3149892D02*
G01*
X6501320Y3177324D01*
X6453568Y3203740D02*
G01*
X6455854Y3196882D01*
X6460426Y3194596D01*
X6464998Y3194596D01*
X6469316Y3196882D01*
X6471602Y3201454D01*
X6473888Y3210344D01*
X6476174Y3217202D01*
X6480746Y3221774D01*
X6485318Y3224060D01*
X6492176Y3224060D01*
X6496748Y3221774D01*
X6499034Y3219488D01*
X6501320Y3212630D01*
X6501320Y3203740D01*
X6499034Y3196882D01*
X6496748Y3194596D01*
X6492176Y3192310D01*
X6485318Y3192310D01*
X6480746Y3194596D01*
X6476174Y3199168D01*
X6473888Y3206026D01*
X6471602Y3214916D01*
X6469316Y3219488D01*
X6464998Y3221774D01*
X6460426Y3221774D01*
X6455854Y3219488D01*
X6453568Y3212630D01*
X6453568Y3203740D01*
D25*
X6669389Y3076041D02*
G01*
X6666087Y3072739D01*
X6669389Y3069437D01*
X6672691Y3072739D01*
X6669389Y3076041D01*
D23*
X5681090Y9070461D02*
G01*
X5681090Y9118213D01*
X5681090Y9118213D02*
G01*
X5653659Y9118213D01*
X5609209Y9086463D02*
G01*
X5611495Y9093321D01*
X5616066Y9097893D01*
X5622925Y9100179D01*
X5624956Y9100179D01*
X5631815Y9097893D01*
X5636386Y9093321D01*
X5638672Y9086463D01*
X5638672Y9084177D01*
X5636386Y9077319D01*
X5631815Y9072747D01*
X5624956Y9070461D01*
X5622925Y9070461D01*
X5616066Y9072747D01*
X5611495Y9077319D01*
X5609209Y9086463D01*
X5609209Y9097893D01*
X5611495Y9109069D01*
X5616066Y9115927D01*
X5622925Y9118213D01*
X5627243Y9118213D01*
X5634100Y9115927D01*
X5636386Y9111355D01*
D25*
X5777905Y9309282D02*
G01*
X5781207Y9305980D01*
X5784763Y9309282D01*
X5781207Y9312838D01*
X5777905Y9309282D01*
D23*
X9960396Y3626876D02*
G01*
X9922042Y3626876D01*
X9960396Y3626876D02*
G01*
X9960396Y3610620D01*
X9958618Y3605286D01*
X9956586Y3603254D01*
X9953030Y3601476D01*
X9949474Y3601476D01*
X9945918Y3603254D01*
X9943886Y3605286D01*
X9942108Y3610620D01*
X9942108Y3626876D01*
X9942108Y3614176D02*
G01*
X9922042Y3601476D01*
X9953030Y3589538D02*
G01*
X9954808Y3585982D01*
X9960396Y3580394D01*
X9922042Y3580394D01*
X8798107Y3739669D02*
G01*
X8720129Y3739669D01*
X8704635Y3734589D01*
X8694221Y3724175D01*
X8689141Y3708427D01*
X8689141Y3698013D01*
X8694221Y3682519D01*
X8704635Y3672105D01*
X8720129Y3667025D01*
X8798107Y3667025D01*
X8777279Y3632735D02*
G01*
X8782613Y3622321D01*
X8798107Y3606573D01*
X8689141Y3606573D01*
X9349760Y3357321D02*
G01*
X9349760Y3453208D01*
X9217639Y3453208D01*
X9217639Y3357321D01*
X9349760Y3272078D02*
G01*
X9349760Y3176191D01*
X9217639Y3176191D01*
X9217639Y3272078D01*
D10*
X11414318Y2735122D02*
G01*
X11634320Y2735122D01*
X11559319Y2695120D02*
G01*
X11559319Y2550121D01*
X11414315Y2505120D02*
G01*
X11634317Y2505120D01*
X10219979Y2049993D02*
G01*
X9999977Y2049993D01*
X10074978Y2089995D02*
G01*
X10074978Y2234994D01*
X10219982Y2279995D02*
G01*
X9999979Y2279995D01*
X9435980Y167998D02*
G01*
X9215978Y167998D01*
X9290979Y208000D02*
G01*
X9290979Y352999D01*
X9435983Y398000D02*
G01*
X9215981Y398000D01*
X8289983Y167998D02*
G01*
X8069981Y167998D01*
X8144982Y208000D02*
G01*
X8144982Y352999D01*
X8289985Y398000D02*
G01*
X8069983Y398000D01*
X7004987Y2891993D02*
G01*
X7004987Y2671991D01*
X6964984Y2746992D02*
G01*
X6819986Y2746992D01*
X6774985Y2891995D02*
G01*
X6774985Y2671993D01*
X6600987Y2260993D02*
G01*
X6380985Y2260993D01*
X6455986Y2300996D02*
G01*
X6455986Y2445994D01*
X6600990Y2490995D02*
G01*
X6380988Y2490995D01*
X5958987Y2664993D02*
G01*
X5958987Y2884995D01*
X5998989Y2809994D02*
G01*
X6143988Y2809994D01*
X6188989Y2664990D02*
G01*
X6188989Y2884992D01*
X6383987Y3302995D02*
G01*
X6603989Y3302995D01*
X6528988Y3262993D02*
G01*
X6528988Y3117994D01*
X6383985Y3072993D02*
G01*
X6603987Y3072993D01*
X5533590Y8998318D02*
G01*
X5533590Y9218320D01*
X5573593Y9143319D02*
G01*
X5718591Y9143319D01*
X5763592Y8998315D02*
G01*
X5763592Y9218317D01*
D23*
X9983774Y3539238D02*
G01*
X10079662Y3539238D01*
X10079662Y3671359D01*
X9983774Y3671359D01*
X9898532Y3539238D02*
G01*
X9802644Y3539238D01*
X9802644Y3671359D01*
X9898532Y3671359D01*
D24*
X8989982Y3374191D02*
G01*
X8989982Y3983791D01*
X8481982Y3983791D02*
G01*
X8481982Y3374191D01*
D10*
G75*
G01*
X9040782Y4009192D02*
G03*
X9040223Y4009192I-279J12697D01*
G75*
G01
X6180912Y2413203D02*
G03X6180912Y2413203I-66726J0D01*
G75*
G01
X6144184Y2413203D02*
G03X6144184Y2413203I-29997J0D01*
G75*
G01
X6871843Y3159557D02*
G03X6871843Y3159557I-29997J0D01*
G75*
G01
X6908571Y3159557D02*
G03X6908571Y3159557I-66726J0D01*
G75*
G01
X5717515Y3363646D02*
G03X5717515Y3363646I-66726J0D01*
G75*
G01
X5680786Y3363646D02*
G03X5680786Y3363646I-29997J0D01*
G75*
G01
X5963056Y3835603D02*
G03X5963056Y3835603I-66726J0D01*
G75*
G01
X5926328Y3835603D02*
G03X5926328Y3835603I-29997J0D01*
G75*
G01
X10108895Y3103905D02*
G03X10108895Y3103905I-66726J0D01*
G75*
G01
X10072167Y3103905D02*
G03X10072167Y3103905I-29997J0D01*
G75*
G01
X11312068Y3459150D02*
G03X11312068Y3459150I-29997J0D01*
G75*
G01
X11348796Y3459150D02*
G03X11348796Y3459150I-66726J0D01*
G75*
G01
X9692513Y1345082D02*
G03X9692513Y1345082I-66726J0D01*
G75*
G01
X9655785Y1345082D02*
G03X9655785Y1345082I-29997J0D01*
G75*
G01
X8282153Y927176D02*
G03X8282153Y927176I-29997J0D01*
G75*
G01
X8318881Y927176D02*
G03X8318881Y927176I-66726J0D01*
G75*
G01
X5855691Y9107145D02*
G03X5855691Y9107145I-207848J0D01*
M02*
