M48
METRIC,LZ,000.000
;FILE_FORMAT=3:3
;TYPE=PLATED
;Layer: Drill PTH
;EasyEDA v6.4.20.5, 2021-08-18T22:14:52--7:00
;eca6c54442ec4921a630a3887de3cdb3,1286d1f709c949e68cfeef46812bcf49,10
;Gerber Generator version 0.2
;Holesize 1 = 0.305 mm
T01C0.305
;Holesize 2 = 0.915 mm
T02C0.915
;Holesize 3 = 1.501 mm
T03C1.501
%
G05
G90
T01
X098770Y022190
X096393Y002286
X090805Y003429
X084201Y002286
X080391Y019685
X079375Y003410
X056007Y088646
X064008Y087630
X068453Y043434
X068420Y032980
X096760Y034440
X066675Y029083
X088773Y029348
X099393Y043434
X058039Y087122
X080899Y040259
X080899Y041275
X080137Y039370
X080137Y033401
X088646Y005715
X071363Y044535
X061110Y046510
X061070Y050290
X070104Y035052
X071755Y033401
X086614Y009271
X072136Y037338
X084201Y018923
X089916Y018923
X090170Y012192
T02
X082521Y009272
X096263Y013435
X100422Y031055
X112812Y034583
X061127Y024122
X068442Y031666
X056529Y033571
X059044Y038371
T03
X112045Y046760G85X112435Y046760
X064290Y048675G85X064290Y049065
M30
