G04 Layer: TopPasteMaskLayer*
G04 EasyEDA v6.4.20.5, 2021-08-18T22:14:52--7:00*
G04 eca6c54442ec4921a630a3887de3cdb3,1286d1f709c949e68cfeef46812bcf49,10*
G04 Gerber Generator version 0.2*
G04 Scale: 100 percent, Rotated: No, Reflected: No *
G04 Dimensions in millimeters *
G04 leading zeros omitted , absolute positions ,4 integer and 5 decimal *
%FSLAX45Y45*%
%MOMM*%

%ADD16C,1.5240*%
%ADD17R,0.9000X0.7000*%
%ADD18R,0.7000X0.9000*%

%LPD*%
G36*
X9980676Y3650284D02*
G01*
X9975646Y3645306D01*
X9975646Y3622497D01*
X10012629Y3622497D01*
X10012629Y3589477D01*
X9975646Y3589477D01*
X9975646Y3565296D01*
X9980676Y3560318D01*
X10060635Y3560318D01*
X10065664Y3565296D01*
X10065664Y3645306D01*
X10060635Y3650284D01*
G37*
G36*
X9821672Y3650284D02*
G01*
X9816642Y3645306D01*
X9816642Y3565296D01*
X9821672Y3560318D01*
X9900666Y3560318D01*
X9905644Y3565296D01*
X9905644Y3589477D01*
X9867646Y3589477D01*
X9867646Y3622497D01*
X9905644Y3622497D01*
X9905644Y3645306D01*
X9900666Y3650284D01*
G37*
D16*
G01*
X6007100Y7175500D03*
G01*
X6007100Y6985000D03*
G01*
X6007100Y6794500D03*
G36*
X11581317Y2600129D02*
G01*
X11671317Y2600129D01*
X11671317Y2530129D01*
X11581317Y2530129D01*
G37*
G36*
X11581315Y2710121D02*
G01*
X11671317Y2710121D01*
X11671317Y2640121D01*
X11581315Y2640121D01*
G37*
G36*
X11377317Y2710111D02*
G01*
X11467317Y2710111D01*
X11467317Y2640111D01*
X11377317Y2640111D01*
G37*
G36*
X11377317Y2600129D02*
G01*
X11467317Y2600129D01*
X11467317Y2530129D01*
X11377317Y2530129D01*
G37*
D17*
G01*
X10007981Y2219985D03*
G01*
X10211968Y2110003D03*
G01*
X10211968Y2219985D03*
G01*
X10007981Y2110003D03*
G01*
X9223984Y337997D03*
G01*
X9223984Y227990D03*
G01*
X9427972Y228015D03*
G01*
X9427972Y337997D03*
G01*
X8077987Y337997D03*
G01*
X8077987Y227990D03*
G01*
X8281974Y228015D03*
G01*
X8281974Y337997D03*
D18*
G01*
X6834987Y2680004D03*
G01*
X6944995Y2680004D03*
G01*
X6944969Y2883992D03*
G01*
X6834987Y2883992D03*
D17*
G01*
X6388988Y2430983D03*
G01*
X6388988Y2321001D03*
G01*
X6592976Y2321001D03*
G01*
X6592976Y2430983D03*
D18*
G01*
X6128969Y2876981D03*
G01*
X6018987Y2876981D03*
G01*
X6018987Y2672994D03*
G01*
X6128969Y2672994D03*
G36*
X6550987Y3168002D02*
G01*
X6640987Y3168002D01*
X6640987Y3098002D01*
X6550987Y3098002D01*
G37*
G36*
X6550985Y3277994D02*
G01*
X6640987Y3277994D01*
X6640987Y3207994D01*
X6550985Y3207994D01*
G37*
G36*
X6346987Y3277984D02*
G01*
X6436987Y3277984D01*
X6436987Y3207984D01*
X6346987Y3207984D01*
G37*
G36*
X6346987Y3168002D02*
G01*
X6436987Y3168002D01*
X6436987Y3098002D01*
X6346987Y3098002D01*
G37*
G01*
X5703595Y9210319D03*
G01*
X5593588Y9210319D03*
G01*
X5593613Y9006306D03*
G01*
X5703595Y9006306D03*
G36*
X8964582Y3971091D02*
G01*
X8888382Y3971091D01*
X8888382Y4123491D01*
X8964582Y4123491D01*
G37*
G36*
X8837582Y3971091D02*
G01*
X8761382Y3971091D01*
X8761382Y4123491D01*
X8837582Y4123491D01*
G37*
G36*
X8710582Y3971091D02*
G01*
X8634382Y3971091D01*
X8634382Y4123491D01*
X8710582Y4123491D01*
G37*
G36*
X8583582Y3971091D02*
G01*
X8507382Y3971091D01*
X8507382Y4123491D01*
X8583582Y4123491D01*
G37*
G36*
X8507382Y3382497D02*
G01*
X8583582Y3382497D01*
X8583582Y3230097D01*
X8507382Y3230097D01*
G37*
G36*
X8634382Y3382497D02*
G01*
X8710582Y3382497D01*
X8710582Y3230097D01*
X8634382Y3230097D01*
G37*
G36*
X8761382Y3382497D02*
G01*
X8837582Y3382497D01*
X8837582Y3230097D01*
X8761382Y3230097D01*
G37*
G36*
X8888382Y3382497D02*
G01*
X8964582Y3382497D01*
X8964582Y3230097D01*
X8888382Y3230097D01*
G37*
G36*
X9171304Y3855694D02*
G01*
X9171304Y4135704D01*
X9472295Y4135704D01*
X9472295Y3855694D01*
G37*
G36*
X9171304Y3255695D02*
G01*
X9171304Y3535705D01*
X9472295Y3535705D01*
X9472295Y3255695D01*
G37*
M02*
