G04 Layer: TopLayer*
G04 EasyEDA v6.4.20.5, 2021-08-18T22:14:52--7:00*
G04 eca6c54442ec4921a630a3887de3cdb3,1286d1f709c949e68cfeef46812bcf49,10*
G04 Gerber Generator version 0.2*
G04 Scale: 100 percent, Rotated: No, Reflected: No *
G04 Dimensions in millimeters *
G04 leading zeros omitted , absolute positions ,4 integer and 5 decimal *
%FSLAX45Y45*%
%MOMM*%

%ADD10C,0.2540*%
%ADD11C,0.3000*%
%ADD12C,0.5000*%
%ADD13C,0.6096*%
%ADD14C,0.6100*%
%ADD15C,1.0000*%
%ADD16C,1.5240*%
%ADD17R,0.9000X0.7000*%
%ADD18R,0.7000X0.9000*%

%LPD*%
G36*
X6357010Y5063490D02*
G01*
X6353352Y5064506D01*
X6350355Y5066741D01*
X6348323Y5069941D01*
X6347612Y5073650D01*
X6347612Y5112918D01*
X6306464Y5112918D01*
X6302400Y5113731D01*
X6298996Y5116169D01*
X6296863Y5119674D01*
X6296355Y5123789D01*
X6297472Y5127802D01*
X6300114Y5131003D01*
X6426301Y5231841D01*
X6429959Y5235143D01*
X6432245Y5237581D01*
X6435039Y5241340D01*
X6436766Y5244185D01*
X6438798Y5248402D01*
X6439966Y5251551D01*
X6441033Y5255818D01*
X6442862Y5259527D01*
X6446062Y5262219D01*
X6450076Y5263388D01*
X6454190Y5262880D01*
X6457797Y5260746D01*
X6460185Y5257342D01*
X6461048Y5253278D01*
X6461048Y5082590D01*
X6459728Y5075936D01*
X6458102Y5072380D01*
X6455257Y5069687D01*
X6451142Y5067401D01*
X6444996Y5066538D01*
X6378752Y5066538D01*
X6368542Y5065674D01*
X6360769Y5063896D01*
G37*

%LPD*%
G36*
X8862974Y3397605D02*
G01*
X8859113Y3398418D01*
X8855811Y3400602D01*
X8853678Y3402685D01*
X8848801Y3405784D01*
X8847175Y3406343D01*
X8843619Y3408476D01*
X8841232Y3411880D01*
X8840368Y3415944D01*
X8840368Y3452012D01*
X8839555Y3460496D01*
X8837218Y3468115D01*
X8833459Y3475177D01*
X8828074Y3481781D01*
X8712555Y3597249D01*
X8706002Y3602685D01*
X8698890Y3606444D01*
X8691270Y3608781D01*
X8682786Y3609594D01*
X7209332Y3609594D01*
X7205472Y3610356D01*
X7202170Y3612591D01*
X6849160Y3965549D01*
X6842607Y3970985D01*
X6835546Y3974744D01*
X6827875Y3977081D01*
X6824370Y3977436D01*
X6820204Y3978757D01*
X6816953Y3981754D01*
X6815328Y3985818D01*
X6815531Y3990187D01*
X6817563Y3994099D01*
X6821068Y3996740D01*
X6825335Y3997706D01*
X7890967Y3997706D01*
X7894828Y3996893D01*
X7898130Y3994708D01*
X7954873Y3937965D01*
X7956905Y3935120D01*
X7957820Y3931665D01*
X7958175Y3927195D01*
X7960715Y3917696D01*
X7964881Y3908806D01*
X7970520Y3900779D01*
X7977479Y3893820D01*
X7985506Y3888181D01*
X7994396Y3884015D01*
X8003895Y3881475D01*
X8013700Y3880612D01*
X8023504Y3881475D01*
X8033003Y3884015D01*
X8041894Y3888181D01*
X8049920Y3893820D01*
X8056880Y3900779D01*
X8062518Y3908806D01*
X8066684Y3917696D01*
X8069224Y3927195D01*
X8070088Y3937000D01*
X8069224Y3946804D01*
X8065516Y3960469D01*
X8066024Y3964279D01*
X8067852Y3967581D01*
X8070850Y3970020D01*
X8074456Y3971137D01*
X8078266Y3970883D01*
X8080095Y3970375D01*
X8089900Y3969512D01*
X8099704Y3970375D01*
X8109203Y3972915D01*
X8118094Y3977081D01*
X8126120Y3982720D01*
X8133080Y3989679D01*
X8138718Y3997706D01*
X8142884Y4006596D01*
X8145424Y4016095D01*
X8146288Y4025900D01*
X8145424Y4035704D01*
X8142884Y4045204D01*
X8138718Y4054094D01*
X8133080Y4062120D01*
X8125714Y4069537D01*
X8123478Y4072788D01*
X8122716Y4076700D01*
X8123478Y4080611D01*
X8125714Y4083862D01*
X8133080Y4091279D01*
X8138718Y4099306D01*
X8142884Y4108196D01*
X8145424Y4117695D01*
X8146288Y4127500D01*
X8145424Y4137304D01*
X8142884Y4146804D01*
X8138718Y4155694D01*
X8133080Y4163720D01*
X8126120Y4170679D01*
X8118094Y4176318D01*
X8109203Y4180484D01*
X8099704Y4183024D01*
X8092490Y4183634D01*
X8088579Y4184802D01*
X8082991Y4187799D01*
X8075320Y4190136D01*
X8066836Y4190949D01*
X5891377Y4190949D01*
X5887516Y4191711D01*
X5884214Y4193946D01*
X5876036Y4202125D01*
X5873800Y4205427D01*
X5873038Y4209288D01*
X5873038Y5144922D01*
X5873800Y5148783D01*
X5876036Y5152085D01*
X5896914Y5172964D01*
X5900216Y5175148D01*
X5904077Y5175961D01*
X5945936Y5175961D01*
X5954420Y5176774D01*
X5962091Y5179110D01*
X5969152Y5182870D01*
X5975705Y5188254D01*
X6152794Y5365394D01*
X6158230Y5371947D01*
X6161989Y5379008D01*
X6164326Y5386679D01*
X6165138Y5395163D01*
X6165138Y6605422D01*
X6165900Y6609283D01*
X6168136Y6612585D01*
X6216294Y6660794D01*
X6221730Y6667347D01*
X6225489Y6674408D01*
X6227826Y6682079D01*
X6228638Y6690563D01*
X6228638Y7045147D01*
X6227826Y7053630D01*
X6225489Y7061301D01*
X6221730Y7068362D01*
X6216294Y7074916D01*
X6111392Y7179818D01*
X6109360Y7182815D01*
X6108446Y7186320D01*
X6108293Y7189114D01*
X6105550Y7202474D01*
X6101080Y7215378D01*
X6094933Y7227519D01*
X6087211Y7238746D01*
X6078067Y7248906D01*
X6067653Y7257694D01*
X6056172Y7265009D01*
X6043777Y7270750D01*
X6030772Y7274814D01*
X6017310Y7277049D01*
X6003696Y7277506D01*
X5990132Y7276185D01*
X5976874Y7272985D01*
X5964123Y7268108D01*
X5952185Y7261555D01*
X5941212Y7253478D01*
X5937300Y7249668D01*
X5933998Y7247534D01*
X5930138Y7246823D01*
X5926277Y7247636D01*
X5923026Y7249820D01*
X5920841Y7253122D01*
X5920079Y7256983D01*
X5920079Y8499551D01*
X5919012Y8511692D01*
X5917895Y8517432D01*
X5915253Y8526068D01*
X5913018Y8531453D01*
X5908751Y8539429D01*
X5905500Y8544306D01*
X5899759Y8551316D01*
X5895644Y8555431D01*
X5888634Y8561171D01*
X5883808Y8564372D01*
X5875832Y8568639D01*
X5870448Y8570874D01*
X5861812Y8573516D01*
X5856071Y8574633D01*
X5843930Y8575700D01*
X5532120Y8575700D01*
X5528259Y8576462D01*
X5524957Y8578697D01*
X5522772Y8581999D01*
X5521960Y8585860D01*
X5522772Y8589772D01*
X5525770Y8593886D01*
X5529072Y8596071D01*
X5532983Y8596833D01*
X5587136Y8596833D01*
X5596534Y8597747D01*
X5603036Y8599220D01*
X5608574Y8601151D01*
X5614568Y8604046D01*
X5619546Y8607145D01*
X5624728Y8611311D01*
X5628894Y8615426D01*
X5633008Y8620658D01*
X5636158Y8625586D01*
X5639003Y8631580D01*
X5640933Y8637117D01*
X5642457Y8643620D01*
X5643321Y8653018D01*
X5643321Y8776106D01*
X5642457Y8785555D01*
X5640933Y8792006D01*
X5639003Y8797544D01*
X5636158Y8803538D01*
X5633720Y8807399D01*
X5632348Y8811006D01*
X5632348Y8814816D01*
X5633821Y8818372D01*
X5643880Y8828379D01*
X5649518Y8836406D01*
X5653633Y8845346D01*
X5656173Y8854795D01*
X5657037Y8864600D01*
X5656173Y8874404D01*
X5653633Y8883853D01*
X5649518Y8892794D01*
X5643880Y8900820D01*
X5637479Y8907221D01*
X5635294Y8910523D01*
X5634532Y8914384D01*
X5634532Y8929065D01*
X5635091Y8932418D01*
X5636717Y8935415D01*
X5639257Y8937701D01*
X5643168Y8940139D01*
X5646724Y8941511D01*
X5650484Y8941511D01*
X5653989Y8940139D01*
X5657392Y8938006D01*
X5662828Y8936126D01*
X5669178Y8935415D01*
X5712460Y8935415D01*
X5716320Y8934602D01*
X5719622Y8932418D01*
X5760008Y8892032D01*
X5762244Y8888730D01*
X5763006Y8884869D01*
X5763006Y8754872D01*
X5762498Y8751824D01*
X5761177Y8749080D01*
X5755081Y8740394D01*
X5750915Y8731504D01*
X5748375Y8722004D01*
X5747512Y8712200D01*
X5748375Y8702395D01*
X5750915Y8692896D01*
X5755081Y8684006D01*
X5760720Y8675979D01*
X5767679Y8669020D01*
X5775706Y8663381D01*
X5784596Y8659215D01*
X5794095Y8656675D01*
X5803900Y8655812D01*
X5813704Y8656675D01*
X5823204Y8659215D01*
X5832094Y8663381D01*
X5840120Y8669020D01*
X5847080Y8675979D01*
X5852718Y8684006D01*
X5856884Y8692896D01*
X5859424Y8702395D01*
X5860288Y8712200D01*
X5859424Y8722004D01*
X5856884Y8731504D01*
X5852718Y8740394D01*
X5846622Y8749080D01*
X5845302Y8751824D01*
X5844794Y8754872D01*
X5844794Y8905494D01*
X5843981Y8913977D01*
X5841644Y8921648D01*
X5837885Y8928709D01*
X5832449Y8935262D01*
X5767476Y9000286D01*
X5765241Y9003588D01*
X5764479Y9007449D01*
X5764479Y9050731D01*
X5763768Y9057081D01*
X5761888Y9062516D01*
X5758789Y9067444D01*
X5754674Y9071508D01*
X5749798Y9074607D01*
X5744311Y9076486D01*
X5738012Y9077198D01*
X5669178Y9077198D01*
X5662828Y9076486D01*
X5657392Y9074607D01*
X5653989Y9072473D01*
X5650484Y9071102D01*
X5646724Y9071102D01*
X5643168Y9072473D01*
X5639816Y9074607D01*
X5634329Y9076486D01*
X5628030Y9077198D01*
X5559196Y9077198D01*
X5552846Y9076486D01*
X5547410Y9074607D01*
X5542483Y9071508D01*
X5538419Y9067444D01*
X5535320Y9062516D01*
X5533390Y9057081D01*
X5532678Y9050731D01*
X5532678Y8961882D01*
X5533390Y8955532D01*
X5535320Y8950096D01*
X5538419Y8945168D01*
X5542483Y8941104D01*
X5547918Y8937701D01*
X5550458Y8935415D01*
X5552135Y8932418D01*
X5552694Y8929065D01*
X5552694Y8896705D01*
X5551728Y8892438D01*
X5547766Y8883853D01*
X5545226Y8874404D01*
X5544362Y8864600D01*
X5545226Y8854795D01*
X5547817Y8845092D01*
X5548122Y8841384D01*
X5547055Y8837828D01*
X5544820Y8834932D01*
X5541619Y8832951D01*
X5538012Y8832291D01*
X5532983Y8832291D01*
X5529072Y8833053D01*
X5525770Y8835288D01*
X5516880Y8844127D01*
X5514695Y8847429D01*
X5513933Y8851341D01*
X5513933Y8908034D01*
X5513120Y8914485D01*
X5510885Y8920429D01*
X5509666Y8922512D01*
X5505653Y8927439D01*
X5500928Y8930995D01*
X5496306Y8933586D01*
X5487974Y8941104D01*
X5474157Y8955887D01*
X5461711Y8971788D01*
X5450687Y8988704D01*
X5441188Y9006586D01*
X5433314Y9025178D01*
X5427065Y9044381D01*
X5422493Y9064091D01*
X5419699Y9084106D01*
X5418632Y9104274D01*
X5419344Y9124492D01*
X5421833Y9144558D01*
X5426049Y9164320D01*
X5431942Y9183624D01*
X5439511Y9202369D01*
X5448706Y9220352D01*
X5459425Y9237472D01*
X5471617Y9253626D01*
X5485180Y9268612D01*
X5499963Y9282379D01*
X5515914Y9294825D01*
X5532882Y9305798D01*
X5550712Y9315246D01*
X5569356Y9323120D01*
X5588609Y9329318D01*
X5608269Y9333839D01*
X5628436Y9336633D01*
X5639104Y9337090D01*
X5648248Y9336074D01*
X6385712Y9336074D01*
X6398209Y9335109D01*
X6408470Y9332772D01*
X6418326Y9328962D01*
X6427571Y9323832D01*
X6435953Y9317431D01*
X6443319Y9309862D01*
X6449568Y9301378D01*
X6454546Y9292031D01*
X6458153Y9282125D01*
X6460286Y9271812D01*
X6461048Y9260738D01*
X6461048Y8806688D01*
X6460286Y8802776D01*
X6458051Y8799474D01*
X6454749Y8797290D01*
X6450888Y8796528D01*
X6446977Y8797290D01*
X6443675Y8799474D01*
X6437020Y8806180D01*
X6428994Y8811818D01*
X6420053Y8815933D01*
X6410604Y8818473D01*
X6400800Y8819337D01*
X6390995Y8818473D01*
X6381546Y8815933D01*
X6372606Y8811818D01*
X6364579Y8806180D01*
X6357620Y8799220D01*
X6351981Y8791194D01*
X6347866Y8782253D01*
X6345326Y8772804D01*
X6344462Y8763000D01*
X6345326Y8753195D01*
X6347866Y8743746D01*
X6351981Y8734806D01*
X6358077Y8726170D01*
X6359448Y8723426D01*
X6359906Y8720328D01*
X6360058Y5288534D01*
X6359652Y5285536D01*
X6358331Y5282844D01*
X6356248Y5280609D01*
X6114694Y5087518D01*
X6111290Y5085689D01*
X6097219Y5084521D01*
X6087719Y5081981D01*
X6078778Y5077815D01*
X6070752Y5072176D01*
X6063792Y5065217D01*
X6058154Y5057190D01*
X6054039Y5048250D01*
X6051499Y5038801D01*
X6050635Y5028996D01*
X6051499Y5019192D01*
X6054039Y5009692D01*
X6058154Y5000802D01*
X6063792Y4992776D01*
X6070752Y4985816D01*
X6078778Y4980178D01*
X6087719Y4976012D01*
X6097219Y4973472D01*
X6106972Y4972608D01*
X6116777Y4973472D01*
X6126276Y4976012D01*
X6135166Y4980178D01*
X6143244Y4985816D01*
X6150152Y4992776D01*
X6155791Y5000802D01*
X6159957Y5009692D01*
X6162243Y5018278D01*
X6163564Y5021173D01*
X6165697Y5023561D01*
X6236563Y5080203D01*
X6239916Y5081981D01*
X6243675Y5082387D01*
X6247333Y5081422D01*
X6250381Y5079187D01*
X6252362Y5075986D01*
X6253073Y5072278D01*
X6253073Y4993335D01*
X6302451Y4993335D01*
X6306312Y4992573D01*
X6309614Y4990388D01*
X6311798Y4987086D01*
X6312611Y4983175D01*
X6312611Y4790795D01*
X6311798Y4786934D01*
X6309614Y4783632D01*
X6306312Y4781397D01*
X6302451Y4780635D01*
X6253073Y4780635D01*
X6253073Y4687570D01*
X6253784Y4681220D01*
X6255715Y4675784D01*
X6258763Y4670856D01*
X6262878Y4666792D01*
X6267754Y4663694D01*
X6273241Y4661814D01*
X6279540Y4661103D01*
X6347612Y4661103D01*
X6347612Y4692142D01*
X6348323Y4695850D01*
X6350355Y4699050D01*
X6353352Y4701286D01*
X6357010Y4702302D01*
X6360769Y4701895D01*
X6368542Y4700117D01*
X6378752Y4699254D01*
X6444996Y4699254D01*
X6451650Y4697933D01*
X6455206Y4696307D01*
X6457848Y4693462D01*
X6460185Y4689348D01*
X6461048Y4683201D01*
X6461048Y4636820D01*
X6461963Y4621987D01*
X6462471Y4618126D01*
X6464909Y4605832D01*
X6465925Y4602073D01*
X6469938Y4590135D01*
X6471462Y4586528D01*
X6477000Y4575251D01*
X6478930Y4571898D01*
X6485940Y4561433D01*
X6488328Y4558334D01*
X6496608Y4548886D01*
X6499352Y4546142D01*
X6508800Y4537862D01*
X6511899Y4535474D01*
X6522364Y4528515D01*
X6525717Y4526534D01*
X6536842Y4521047D01*
X6544208Y4518253D01*
X6547612Y4516120D01*
X6549898Y4512868D01*
X6550761Y4508957D01*
X6550050Y4504994D01*
X6547866Y4501642D01*
X6544513Y4499406D01*
X6540601Y4498594D01*
X6325412Y4498594D01*
X6321552Y4499356D01*
X6318250Y4501591D01*
X6169812Y4649978D01*
X6167831Y4652873D01*
X6166916Y4656277D01*
X6166510Y4660798D01*
X6163970Y4670247D01*
X6159804Y4679188D01*
X6154166Y4687214D01*
X6147206Y4694174D01*
X6139180Y4699812D01*
X6130290Y4703978D01*
X6120790Y4706518D01*
X6110986Y4707382D01*
X6101181Y4706518D01*
X6091732Y4703978D01*
X6082792Y4699812D01*
X6074765Y4694174D01*
X6067806Y4687214D01*
X6062167Y4679188D01*
X6058001Y4670247D01*
X6055461Y4660798D01*
X6054598Y4650994D01*
X6055461Y4641189D01*
X6058001Y4631690D01*
X6062167Y4622800D01*
X6067806Y4614773D01*
X6074765Y4607814D01*
X6082792Y4602175D01*
X6091732Y4598009D01*
X6101181Y4595469D01*
X6105702Y4595063D01*
X6109106Y4594148D01*
X6112002Y4592167D01*
X6275019Y4429150D01*
X6281572Y4423714D01*
X6288633Y4419955D01*
X6296304Y4417618D01*
X6304788Y4416806D01*
X6709867Y4416806D01*
X6713728Y4415993D01*
X6717030Y4413808D01*
X6786473Y4344365D01*
X6788505Y4341469D01*
X6789420Y4338066D01*
X6789826Y4333595D01*
X6792366Y4324146D01*
X6796481Y4315206D01*
X6802120Y4307179D01*
X6809079Y4300220D01*
X6817106Y4294581D01*
X6826046Y4290466D01*
X6835495Y4287926D01*
X6845300Y4287062D01*
X6855104Y4287926D01*
X6864553Y4290466D01*
X6873494Y4294581D01*
X6881520Y4300220D01*
X6888480Y4307179D01*
X6894118Y4315206D01*
X6898233Y4324146D01*
X6900773Y4333595D01*
X6901637Y4343400D01*
X6900773Y4353204D01*
X6898233Y4362653D01*
X6894118Y4371594D01*
X6888480Y4379620D01*
X6881520Y4386580D01*
X6873494Y4392218D01*
X6864553Y4396333D01*
X6855104Y4398873D01*
X6850634Y4399280D01*
X6847230Y4400194D01*
X6844334Y4402226D01*
X6760311Y4486249D01*
X6752488Y4492498D01*
X6749846Y4495698D01*
X6748729Y4499711D01*
X6749288Y4503826D01*
X6751421Y4507331D01*
X6754825Y4509770D01*
X6758889Y4510582D01*
X7089495Y4510582D01*
X7093407Y4509820D01*
X7096709Y4507636D01*
X7098893Y4504334D01*
X7099655Y4500422D01*
X7098893Y4496562D01*
X7096709Y4493260D01*
X7093153Y4489704D01*
X7087514Y4481677D01*
X7083348Y4472736D01*
X7080808Y4463288D01*
X7079996Y4453483D01*
X7080808Y4443679D01*
X7083348Y4434179D01*
X7087514Y4425289D01*
X7093153Y4417263D01*
X7100112Y4410303D01*
X7108139Y4404664D01*
X7117080Y4400499D01*
X7126579Y4397959D01*
X7136333Y4397095D01*
X7146137Y4397959D01*
X7155637Y4400499D01*
X7164527Y4404664D01*
X7172553Y4410303D01*
X7179513Y4417263D01*
X7185152Y4425289D01*
X7189317Y4434179D01*
X7191857Y4443679D01*
X7192721Y4453483D01*
X7191857Y4463288D01*
X7189317Y4472736D01*
X7185152Y4481677D01*
X7179513Y4489704D01*
X7176008Y4493260D01*
X7173772Y4496562D01*
X7173010Y4500422D01*
X7173772Y4504334D01*
X7176008Y4507636D01*
X7179259Y4509820D01*
X7183170Y4510582D01*
X10340340Y4510582D01*
X10344251Y4509820D01*
X10347502Y4507636D01*
X10349738Y4504334D01*
X10350500Y4500422D01*
X10350500Y3655110D01*
X10349738Y3651199D01*
X10347553Y3647897D01*
X10344251Y3645712D01*
X10340390Y3644950D01*
X10092232Y3644137D01*
X10088626Y3644798D01*
X10085476Y3646728D01*
X10083190Y3649624D01*
X10082022Y3654247D01*
X10080091Y3659733D01*
X10076992Y3664610D01*
X10072928Y3668725D01*
X10068001Y3671773D01*
X10062565Y3673703D01*
X10056215Y3674414D01*
X9976713Y3674414D01*
X9970414Y3673703D01*
X9964928Y3671773D01*
X9960051Y3668725D01*
X9955936Y3664610D01*
X9952888Y3659733D01*
X9950754Y3653637D01*
X9948621Y3650081D01*
X9945217Y3647694D01*
X9941153Y3646830D01*
X9937089Y3647694D01*
X9933686Y3650081D01*
X9931552Y3653637D01*
X9929418Y3659733D01*
X9926370Y3664610D01*
X9922256Y3668725D01*
X9917379Y3671773D01*
X9911892Y3673703D01*
X9905593Y3674414D01*
X9826091Y3674414D01*
X9819741Y3673703D01*
X9814306Y3671773D01*
X9809378Y3668725D01*
X9805314Y3664610D01*
X9802215Y3659733D01*
X9800285Y3654247D01*
X9799116Y3649421D01*
X9796830Y3646474D01*
X9793681Y3644595D01*
X9790074Y3643884D01*
X9013291Y3643884D01*
X9009430Y3644696D01*
X9006128Y3646881D01*
X8720632Y3932377D01*
X8718550Y3935374D01*
X8717635Y3938879D01*
X8718042Y3942486D01*
X8719718Y3945737D01*
X8722410Y3948176D01*
X8726678Y3950868D01*
X8728811Y3953001D01*
X8732113Y3955186D01*
X8735974Y3955948D01*
X8739886Y3955186D01*
X8743188Y3953001D01*
X8745270Y3950868D01*
X8750147Y3947820D01*
X8755634Y3945890D01*
X8761933Y3945178D01*
X8837015Y3945178D01*
X8843314Y3945890D01*
X8848801Y3947820D01*
X8853678Y3950868D01*
X8855811Y3953001D01*
X8859113Y3955186D01*
X8862974Y3955948D01*
X8866886Y3955186D01*
X8870188Y3953001D01*
X8872270Y3950868D01*
X8877147Y3947820D01*
X8882634Y3945890D01*
X8888933Y3945178D01*
X8964015Y3945178D01*
X8970314Y3945890D01*
X8975801Y3947820D01*
X8980678Y3950868D01*
X8984792Y3954983D01*
X8987891Y3959860D01*
X8989771Y3965346D01*
X8990482Y3971645D01*
X8990482Y4122928D01*
X8989771Y4129227D01*
X8987891Y4134713D01*
X8984792Y4139590D01*
X8980678Y4143705D01*
X8975801Y4146753D01*
X8970314Y4148683D01*
X8964015Y4149394D01*
X8888933Y4149394D01*
X8882634Y4148683D01*
X8877147Y4146753D01*
X8872270Y4143705D01*
X8870188Y4141571D01*
X8866886Y4139387D01*
X8862974Y4138625D01*
X8859113Y4139387D01*
X8855811Y4141571D01*
X8853678Y4143705D01*
X8848801Y4146753D01*
X8843314Y4148683D01*
X8837015Y4149394D01*
X8761933Y4149394D01*
X8755634Y4148683D01*
X8750147Y4146753D01*
X8745270Y4143705D01*
X8743188Y4141571D01*
X8739886Y4139387D01*
X8735974Y4138625D01*
X8732113Y4139387D01*
X8728811Y4141571D01*
X8726678Y4143705D01*
X8721801Y4146753D01*
X8716314Y4148683D01*
X8710015Y4149394D01*
X8634933Y4149394D01*
X8628634Y4148683D01*
X8623147Y4146753D01*
X8618270Y4143705D01*
X8616188Y4141571D01*
X8612886Y4139387D01*
X8608974Y4138625D01*
X8605113Y4139387D01*
X8601811Y4141571D01*
X8599678Y4143705D01*
X8594801Y4146753D01*
X8589314Y4148683D01*
X8583015Y4149394D01*
X8570874Y4149394D01*
X8570874Y4091736D01*
X8598306Y4091736D01*
X8602218Y4090974D01*
X8605520Y4088790D01*
X8607704Y4085488D01*
X8608466Y4081576D01*
X8608466Y4012996D01*
X8607704Y4009136D01*
X8605520Y4005834D01*
X8602218Y4003598D01*
X8598306Y4002836D01*
X8570874Y4002836D01*
X8570874Y3945178D01*
X8583015Y3945178D01*
X8589314Y3945890D01*
X8594801Y3947820D01*
X8599678Y3950868D01*
X8601811Y3953001D01*
X8605113Y3955186D01*
X8608974Y3955948D01*
X8612886Y3955186D01*
X8616188Y3953001D01*
X8618270Y3950868D01*
X8623147Y3947820D01*
X8627059Y3946448D01*
X8630615Y3944315D01*
X8633002Y3940911D01*
X8633866Y3936847D01*
X8633866Y3926433D01*
X8634679Y3918407D01*
X8636863Y3911142D01*
X8640419Y3904487D01*
X8645550Y3898290D01*
X8965438Y3578351D01*
X8971686Y3573221D01*
X8978341Y3569665D01*
X8985554Y3567480D01*
X8993581Y3566668D01*
X9142069Y3566668D01*
X9146286Y3565804D01*
X9149740Y3563213D01*
X9151823Y3559454D01*
X9152178Y3555187D01*
X9150705Y3551123D01*
X9148013Y3546856D01*
X9146133Y3541420D01*
X9145422Y3535070D01*
X9145422Y3456787D01*
X9144609Y3452876D01*
X9142425Y3449574D01*
X9139123Y3447389D01*
X9135262Y3446627D01*
X9016085Y3446627D01*
X9011462Y3446424D01*
X9007043Y3445814D01*
X9002725Y3444849D01*
X8998458Y3443528D01*
X8994394Y3441852D01*
X8990431Y3439769D01*
X8986672Y3437382D01*
X8983167Y3434689D01*
X8979712Y3431540D01*
X8959545Y3411372D01*
X8956294Y3409187D01*
X8952382Y3408426D01*
X8888933Y3408426D01*
X8882634Y3407714D01*
X8877147Y3405784D01*
X8872270Y3402685D01*
X8870188Y3400602D01*
X8866886Y3398418D01*
G37*

%LPC*%
G36*
X9403384Y3829812D02*
G01*
X9471710Y3829812D01*
X9478060Y3830574D01*
X9483496Y3832453D01*
X9488424Y3835552D01*
X9492488Y3839616D01*
X9495586Y3844544D01*
X9497466Y3849979D01*
X9498228Y3856329D01*
X9498228Y3919372D01*
X9403384Y3919372D01*
G37*
G36*
X9171889Y3829812D02*
G01*
X9240215Y3829812D01*
X9240215Y3919372D01*
X9145422Y3919372D01*
X9145422Y3856329D01*
X9146133Y3849979D01*
X9148013Y3844544D01*
X9151112Y3839616D01*
X9155176Y3835552D01*
X9160103Y3832453D01*
X9165539Y3830574D01*
G37*
G36*
X5532678Y9239199D02*
G01*
X5569712Y9239199D01*
X5569712Y9281261D01*
X5559145Y9281261D01*
X5552846Y9280550D01*
X5547360Y9278620D01*
X5542483Y9275521D01*
X5538368Y9271457D01*
X5535320Y9266529D01*
X5533390Y9261094D01*
X5532678Y9254744D01*
G37*
G36*
X9403384Y4072026D02*
G01*
X9498228Y4072026D01*
X9498228Y4135069D01*
X9497466Y4141419D01*
X9495586Y4146854D01*
X9492488Y4151782D01*
X9488424Y4155846D01*
X9483496Y4158945D01*
X9478060Y4160824D01*
X9471710Y4161536D01*
X9403384Y4161536D01*
G37*
G36*
X9145422Y4072026D02*
G01*
X9240215Y4072026D01*
X9240215Y4161536D01*
X9171889Y4161536D01*
X9165539Y4160824D01*
X9160103Y4158945D01*
X9155176Y4155846D01*
X9151112Y4151782D01*
X9148013Y4146854D01*
X9146133Y4141419D01*
X9145422Y4135069D01*
G37*
G36*
X8481466Y4091736D02*
G01*
X8520074Y4091736D01*
X8520074Y4149394D01*
X8507933Y4149394D01*
X8501634Y4148683D01*
X8496147Y4146753D01*
X8491270Y4143705D01*
X8487156Y4139590D01*
X8484108Y4134713D01*
X8482177Y4129227D01*
X8481466Y4122928D01*
G37*
G36*
X9939274Y4287012D02*
G01*
X9949078Y4287875D01*
X9958578Y4290415D01*
X9967468Y4294581D01*
X9975494Y4300220D01*
X9982454Y4307179D01*
X9988092Y4315206D01*
X9992258Y4324096D01*
X9994798Y4333595D01*
X9995662Y4343400D01*
X9994798Y4353204D01*
X9992258Y4362704D01*
X9988092Y4371594D01*
X9982454Y4379620D01*
X9975494Y4386580D01*
X9967468Y4392218D01*
X9958578Y4396384D01*
X9949078Y4398924D01*
X9939274Y4399788D01*
X9929469Y4398924D01*
X9919970Y4396384D01*
X9911080Y4392218D01*
X9903053Y4386580D01*
X9896094Y4379620D01*
X9890455Y4371594D01*
X9886289Y4362704D01*
X9883749Y4353204D01*
X9882886Y4343400D01*
X9883749Y4333595D01*
X9886289Y4324096D01*
X9890455Y4315206D01*
X9896094Y4307179D01*
X9903053Y4300220D01*
X9911080Y4294581D01*
X9919970Y4290415D01*
X9929469Y4287875D01*
G37*
G36*
X5617413Y9139428D02*
G01*
X5628030Y9139428D01*
X5634329Y9140139D01*
X5639816Y9142069D01*
X5643168Y9144152D01*
X5646674Y9145574D01*
X5650484Y9145574D01*
X5653989Y9144152D01*
X5657392Y9142069D01*
X5662828Y9140139D01*
X5669178Y9139428D01*
X5738012Y9139428D01*
X5744311Y9140139D01*
X5749798Y9142069D01*
X5754674Y9145117D01*
X5758789Y9149232D01*
X5761888Y9154109D01*
X5763768Y9159595D01*
X5764479Y9165894D01*
X5764479Y9254744D01*
X5763768Y9261094D01*
X5761888Y9266529D01*
X5758789Y9271457D01*
X5754674Y9275521D01*
X5749798Y9278620D01*
X5744311Y9280550D01*
X5738012Y9281261D01*
X5669178Y9281261D01*
X5662828Y9280550D01*
X5657392Y9278620D01*
X5653989Y9276486D01*
X5650484Y9275114D01*
X5646674Y9275114D01*
X5643168Y9276486D01*
X5639816Y9278620D01*
X5634329Y9280550D01*
X5628030Y9281261D01*
X5617413Y9281261D01*
X5617413Y9239199D01*
X5632500Y9239199D01*
X5636412Y9238386D01*
X5639714Y9236202D01*
X5641898Y9232900D01*
X5642660Y9229039D01*
X5642660Y9191650D01*
X5641898Y9187738D01*
X5639714Y9184436D01*
X5636412Y9182252D01*
X5632500Y9181490D01*
X5617413Y9181490D01*
G37*
G36*
X5559145Y9139428D02*
G01*
X5569712Y9139428D01*
X5569712Y9181490D01*
X5532678Y9181490D01*
X5532678Y9165894D01*
X5533390Y9159595D01*
X5535320Y9154109D01*
X5538368Y9149232D01*
X5542483Y9145117D01*
X5547360Y9142069D01*
X5552846Y9140139D01*
G37*
G36*
X8507933Y3945178D02*
G01*
X8520074Y3945178D01*
X8520074Y4002836D01*
X8481466Y4002836D01*
X8481466Y3971645D01*
X8482177Y3965346D01*
X8484108Y3959860D01*
X8487156Y3954983D01*
X8491270Y3950868D01*
X8496147Y3947820D01*
X8501634Y3945890D01*
G37*

%LPD*%
G36*
X9841484Y823569D02*
G01*
X9837572Y824331D01*
X9834270Y826566D01*
X9755936Y904849D01*
X9749383Y910285D01*
X9742322Y914044D01*
X9734651Y916381D01*
X9726168Y917194D01*
X9023502Y917194D01*
X9019590Y918006D01*
X9016288Y920191D01*
X8921191Y1015695D01*
X8918956Y1018997D01*
X8918194Y1022858D01*
X8918194Y2865678D01*
X8918752Y2868980D01*
X8920378Y2871927D01*
X8931960Y2882239D01*
X8939377Y2891180D01*
X8945321Y2901188D01*
X8949639Y2911957D01*
X8952280Y2923286D01*
X8953195Y2934868D01*
X8952280Y2946450D01*
X8949639Y2957728D01*
X8945321Y2968498D01*
X8939377Y2978505D01*
X8931960Y2987446D01*
X8920378Y2997758D01*
X8918752Y3000705D01*
X8918194Y3004007D01*
X8918194Y3194050D01*
X8919006Y3197910D01*
X8921191Y3201212D01*
X8924493Y3203397D01*
X8928354Y3204210D01*
X8964015Y3204210D01*
X8970314Y3204921D01*
X8975801Y3206800D01*
X8980678Y3209899D01*
X8984792Y3213963D01*
X8987891Y3218891D01*
X8989771Y3224326D01*
X8990482Y3230676D01*
X8990482Y3294126D01*
X8991244Y3297986D01*
X8993479Y3301288D01*
X9034018Y3341827D01*
X9037269Y3344011D01*
X9041180Y3344773D01*
X9135262Y3344773D01*
X9139123Y3344011D01*
X9142425Y3341827D01*
X9144609Y3338525D01*
X9145422Y3334613D01*
X9145422Y3256330D01*
X9146133Y3249980D01*
X9148013Y3244545D01*
X9151112Y3239617D01*
X9155176Y3235553D01*
X9160103Y3232454D01*
X9165539Y3230575D01*
X9171889Y3229813D01*
X9471710Y3229813D01*
X9478060Y3230575D01*
X9483496Y3232454D01*
X9488424Y3235553D01*
X9492488Y3239617D01*
X9495586Y3244545D01*
X9497466Y3249980D01*
X9498228Y3256330D01*
X9498228Y3334613D01*
X9498990Y3338525D01*
X9501174Y3341827D01*
X9504476Y3344011D01*
X9508388Y3344773D01*
X9625279Y3344773D01*
X9629140Y3344011D01*
X9632442Y3341827D01*
X9634626Y3338525D01*
X9635439Y3334664D01*
X9636506Y3073704D01*
X9637318Y3065424D01*
X9639655Y3057753D01*
X9643414Y3050692D01*
X9648850Y3044139D01*
X9775139Y2917850D01*
X9781692Y2912414D01*
X9788753Y2908655D01*
X9796424Y2906318D01*
X9804908Y2905506D01*
X9961727Y2905506D01*
X9965588Y2904744D01*
X9968890Y2902559D01*
X9971074Y2899308D01*
X9971887Y2895447D01*
X9971176Y2891586D01*
X9969042Y2888284D01*
X9965791Y2885998D01*
X9961626Y2884170D01*
X9939223Y2872333D01*
X9917785Y2858871D01*
X9897414Y2843834D01*
X9878212Y2827324D01*
X9860280Y2809443D01*
X9843770Y2790240D01*
X9828733Y2769870D01*
X9815271Y2748432D01*
X9803434Y2726029D01*
X9793325Y2702814D01*
X9784943Y2678938D01*
X9778390Y2654452D01*
X9773716Y2629560D01*
X9770872Y2604414D01*
X9769906Y2579116D01*
X9770872Y2553817D01*
X9773716Y2528671D01*
X9778390Y2503779D01*
X9784943Y2479294D01*
X9793325Y2455418D01*
X9803434Y2432202D01*
X9815271Y2409799D01*
X9828733Y2388362D01*
X9843770Y2367991D01*
X9860280Y2348788D01*
X9878212Y2330907D01*
X9897414Y2314397D01*
X9917785Y2299360D01*
X9939832Y2285542D01*
X9942728Y2282799D01*
X9944303Y2279192D01*
X9944455Y2275230D01*
X9943033Y2271522D01*
X9939680Y2266188D01*
X9939070Y2264410D01*
X9936937Y2260854D01*
X9933533Y2258466D01*
X9929469Y2257602D01*
X9922002Y2257602D01*
X9918090Y2258364D01*
X9914788Y2260600D01*
X9913213Y2262174D01*
X9905187Y2267813D01*
X9896246Y2271928D01*
X9886797Y2274468D01*
X9876993Y2275332D01*
X9867188Y2274468D01*
X9857740Y2271928D01*
X9848799Y2267813D01*
X9840772Y2262174D01*
X9833813Y2255215D01*
X9828174Y2247188D01*
X9824059Y2238248D01*
X9821519Y2228799D01*
X9820656Y2218994D01*
X9821519Y2209190D01*
X9824059Y2199741D01*
X9828174Y2190800D01*
X9833813Y2182774D01*
X9840772Y2175814D01*
X9848799Y2170176D01*
X9857740Y2166061D01*
X9867188Y2163521D01*
X9876993Y2162657D01*
X9886797Y2163521D01*
X9896246Y2166061D01*
X9905187Y2170176D01*
X9913213Y2175814D01*
X9914788Y2177389D01*
X9918090Y2179624D01*
X9922002Y2180386D01*
X9930180Y2180386D01*
X9933635Y2179777D01*
X9936683Y2177999D01*
X9938969Y2175306D01*
X9941966Y2170074D01*
X9943236Y2166620D01*
X9943185Y2162962D01*
X9941814Y2159558D01*
X9939680Y2156206D01*
X9937750Y2150719D01*
X9937038Y2144420D01*
X9937038Y2133854D01*
X9979101Y2133854D01*
X9979101Y2148941D01*
X9979914Y2152802D01*
X9982098Y2156104D01*
X9985400Y2158288D01*
X9989261Y2159101D01*
X10026650Y2159101D01*
X10030561Y2158288D01*
X10033863Y2156104D01*
X10036048Y2152802D01*
X10036810Y2148941D01*
X10036810Y2133854D01*
X10078872Y2133854D01*
X10078872Y2144420D01*
X10078161Y2150719D01*
X10076230Y2156206D01*
X10074148Y2159558D01*
X10072725Y2163114D01*
X10072725Y2166874D01*
X10074148Y2170379D01*
X10076230Y2173782D01*
X10078161Y2179218D01*
X10078872Y2185568D01*
X10078872Y2231085D01*
X10079685Y2235047D01*
X10081971Y2238400D01*
X10085425Y2240584D01*
X10089438Y2241245D01*
X10108539Y2240534D01*
X10130536Y2241346D01*
X10134549Y2240686D01*
X10137952Y2238502D01*
X10140289Y2235149D01*
X10141102Y2231186D01*
X10141102Y2185568D01*
X10141813Y2179218D01*
X10143693Y2173782D01*
X10145826Y2170379D01*
X10147198Y2166874D01*
X10147198Y2163114D01*
X10145826Y2159609D01*
X10143693Y2156206D01*
X10141813Y2150770D01*
X10141102Y2144420D01*
X10141102Y2075586D01*
X10141813Y2069236D01*
X10143693Y2063800D01*
X10146792Y2058873D01*
X10150856Y2054809D01*
X10155783Y2051710D01*
X10161219Y2049830D01*
X10167569Y2049119D01*
X10256418Y2049119D01*
X10262717Y2049830D01*
X10268204Y2051710D01*
X10273080Y2054809D01*
X10277195Y2058873D01*
X10280599Y2064308D01*
X10282885Y2066848D01*
X10285831Y2068474D01*
X10289184Y2069084D01*
X10462564Y2069084D01*
X10470388Y2069795D01*
X10478109Y2072030D01*
X10485221Y2075688D01*
X10491876Y2081022D01*
X10619943Y2205532D01*
X10626090Y2212797D01*
X10628172Y2214676D01*
X10631271Y2216048D01*
X10634929Y2216556D01*
X10638586Y2215642D01*
X10641634Y2213508D01*
X10643717Y2210460D01*
X10644530Y2206802D01*
X10645495Y2181656D01*
X10648442Y2157069D01*
X10653268Y2132736D01*
X10659973Y2108911D01*
X10668558Y2085644D01*
X10678922Y2063140D01*
X10691063Y2041550D01*
X10704830Y2020925D01*
X10720120Y2001469D01*
X10736986Y1983282D01*
X10755172Y1966468D01*
X10774629Y1951126D01*
X10795203Y1937359D01*
X10816844Y1925269D01*
X10839348Y1914906D01*
X10862564Y1906320D01*
X10886440Y1899615D01*
X10910722Y1894738D01*
X10935309Y1891842D01*
X10960100Y1890877D01*
X10984839Y1891842D01*
X11009426Y1894738D01*
X11033709Y1899615D01*
X11057585Y1906320D01*
X11080800Y1914906D01*
X11103305Y1925269D01*
X11124946Y1937359D01*
X11145520Y1951126D01*
X11164976Y1966468D01*
X11183162Y1983282D01*
X11200028Y2001469D01*
X11215319Y2020925D01*
X11229086Y2041550D01*
X11241227Y2063140D01*
X11251590Y2085644D01*
X11260175Y2108911D01*
X11266881Y2132736D01*
X11271707Y2157069D01*
X11274653Y2181656D01*
X11275618Y2206396D01*
X11274653Y2231136D01*
X11271707Y2255774D01*
X11266881Y2280056D01*
X11260175Y2303932D01*
X11251590Y2327148D01*
X11243360Y2344978D01*
X11242446Y2348890D01*
X11243106Y2352903D01*
X11245291Y2356307D01*
X11248644Y2358593D01*
X11252606Y2359406D01*
X11543792Y2359406D01*
X11552275Y2360218D01*
X11559946Y2362555D01*
X11567007Y2366314D01*
X11573560Y2371750D01*
X11654891Y2453081D01*
X11660327Y2459634D01*
X11664086Y2466695D01*
X11666423Y2474366D01*
X11667236Y2482850D01*
X11667236Y2494737D01*
X11667896Y2498394D01*
X11669826Y2501493D01*
X11672722Y2503779D01*
X11677091Y2504948D01*
X11682526Y2506827D01*
X11687454Y2509926D01*
X11691518Y2514041D01*
X11694617Y2518918D01*
X11696547Y2524404D01*
X11697258Y2530703D01*
X11697258Y2599537D01*
X11696547Y2605887D01*
X11694617Y2611323D01*
X11692483Y2614726D01*
X11691112Y2618232D01*
X11691112Y2622042D01*
X11692483Y2625547D01*
X11694617Y2628900D01*
X11696547Y2634386D01*
X11697258Y2640685D01*
X11697258Y2651302D01*
X11655196Y2651302D01*
X11655196Y2636215D01*
X11654383Y2632303D01*
X11652199Y2629001D01*
X11648897Y2626817D01*
X11645036Y2626055D01*
X11607647Y2626055D01*
X11603736Y2626817D01*
X11600434Y2629001D01*
X11598249Y2632303D01*
X11597487Y2636215D01*
X11597487Y2651302D01*
X11555425Y2651302D01*
X11555425Y2640685D01*
X11556136Y2634386D01*
X11558066Y2628900D01*
X11560149Y2625547D01*
X11561572Y2622042D01*
X11561572Y2618232D01*
X11560149Y2614726D01*
X11558066Y2611323D01*
X11556136Y2605887D01*
X11555425Y2599537D01*
X11555425Y2530703D01*
X11556136Y2524404D01*
X11558066Y2518918D01*
X11561114Y2514041D01*
X11565229Y2509926D01*
X11570106Y2506827D01*
X11571782Y2506268D01*
X11575288Y2504186D01*
X11577675Y2500884D01*
X11578590Y2496870D01*
X11577878Y2492908D01*
X11575643Y2489504D01*
X11530330Y2444191D01*
X11527028Y2441956D01*
X11523167Y2441194D01*
X11273332Y2441194D01*
X11269472Y2441956D01*
X11266170Y2444191D01*
X11159591Y2550718D01*
X11157407Y2554020D01*
X11156645Y2557932D01*
X11157407Y2561793D01*
X11159591Y2565095D01*
X11162893Y2567330D01*
X11166805Y2568092D01*
X11172850Y2568092D01*
X11176711Y2567330D01*
X11180013Y2565095D01*
X11208562Y2536545D01*
X11215166Y2531160D01*
X11222228Y2527401D01*
X11229848Y2525064D01*
X11238331Y2524201D01*
X11345062Y2524201D01*
X11348415Y2523642D01*
X11351412Y2522016D01*
X11353698Y2519476D01*
X11357102Y2514041D01*
X11361216Y2509926D01*
X11366093Y2506827D01*
X11371580Y2504948D01*
X11377879Y2504236D01*
X11466728Y2504236D01*
X11473078Y2504948D01*
X11478514Y2506827D01*
X11483441Y2509926D01*
X11487505Y2514041D01*
X11490604Y2518918D01*
X11492484Y2524404D01*
X11493195Y2530703D01*
X11493195Y2599537D01*
X11492484Y2605887D01*
X11490604Y2611323D01*
X11488470Y2614726D01*
X11487099Y2618232D01*
X11487099Y2621991D01*
X11488470Y2625547D01*
X11490604Y2628900D01*
X11492484Y2634386D01*
X11493195Y2640685D01*
X11493195Y2688996D01*
X11494008Y2692958D01*
X11496344Y2696311D01*
X11499748Y2698496D01*
X11503761Y2699156D01*
X11517477Y2698648D01*
X11546738Y2699715D01*
X11549278Y2699004D01*
X11597487Y2699004D01*
X11597487Y2700578D01*
X11598452Y2704896D01*
X11601094Y2708351D01*
X11605006Y2710383D01*
X11617248Y2713685D01*
X11641683Y2722219D01*
X11645493Y2722778D01*
X11649202Y2721914D01*
X11652351Y2719679D01*
X11654434Y2716428D01*
X11655196Y2712618D01*
X11655196Y2699004D01*
X11697258Y2699004D01*
X11697258Y2709570D01*
X11696547Y2715869D01*
X11694617Y2721356D01*
X11691518Y2726232D01*
X11687810Y2729992D01*
X11685727Y2732989D01*
X11684863Y2736494D01*
X11685270Y2740101D01*
X11686895Y2743301D01*
X11689588Y2745790D01*
X11708180Y2757474D01*
X11728551Y2772511D01*
X11747754Y2789021D01*
X11765686Y2806954D01*
X11782196Y2826105D01*
X11797233Y2846476D01*
X11810695Y2867964D01*
X11822531Y2890316D01*
X11832640Y2913532D01*
X11841022Y2937459D01*
X11847576Y2961894D01*
X11852300Y2986786D01*
X11855094Y3011932D01*
X11856059Y3037230D01*
X11855094Y3062528D01*
X11852300Y3087725D01*
X11847576Y3112566D01*
X11841022Y3137052D01*
X11832640Y3160928D01*
X11822531Y3184144D01*
X11810695Y3206546D01*
X11797233Y3227984D01*
X11782196Y3248355D01*
X11765686Y3267557D01*
X11747754Y3285439D01*
X11728551Y3301949D01*
X11708180Y3316986D01*
X11686743Y3330498D01*
X11664391Y3342284D01*
X11641175Y3352444D01*
X11617248Y3360775D01*
X11592814Y3367328D01*
X11567922Y3372053D01*
X11542776Y3374898D01*
X11517477Y3375863D01*
X11492179Y3374898D01*
X11466982Y3372053D01*
X11442090Y3367328D01*
X11417655Y3360775D01*
X11393779Y3352444D01*
X11370564Y3342284D01*
X11348161Y3330498D01*
X11326723Y3316986D01*
X11306352Y3301949D01*
X11287150Y3285439D01*
X11269268Y3267557D01*
X11252708Y3248355D01*
X11237671Y3227984D01*
X11224209Y3206546D01*
X11212372Y3184144D01*
X11202263Y3160928D01*
X11193881Y3137052D01*
X11187328Y3112566D01*
X11182654Y3087725D01*
X11179810Y3062528D01*
X11178844Y3037230D01*
X11179810Y3011932D01*
X11182654Y2986786D01*
X11187328Y2961894D01*
X11193881Y2937459D01*
X11202263Y2913532D01*
X11212372Y2890316D01*
X11224209Y2867964D01*
X11237671Y2846476D01*
X11252708Y2826105D01*
X11269268Y2806954D01*
X11287150Y2789021D01*
X11306352Y2772511D01*
X11326723Y2757474D01*
X11348161Y2744012D01*
X11353596Y2741117D01*
X11356797Y2738475D01*
X11358626Y2734767D01*
X11358880Y2730652D01*
X11357457Y2726740D01*
X11351615Y2716987D01*
X11348212Y2714548D01*
X11344148Y2713736D01*
X11123828Y2713736D01*
X11120120Y2714396D01*
X11116970Y2716428D01*
X10976559Y2845968D01*
X10974171Y2849372D01*
X10973308Y2853436D01*
X10973308Y3238246D01*
X10973104Y3242056D01*
X10972546Y3246069D01*
X10971682Y3249523D01*
X10970361Y3253282D01*
X10968837Y3256534D01*
X10966754Y3259937D01*
X10964672Y3262833D01*
X10961979Y3265830D01*
X10959134Y3268370D01*
X10585399Y3578047D01*
X10582808Y3581247D01*
X10581741Y3585210D01*
X10582300Y3589274D01*
X10584434Y3592779D01*
X10587786Y3595166D01*
X10591800Y3596030D01*
X11916968Y3606749D01*
X11920372Y3606190D01*
X11923420Y3604463D01*
X11925706Y3601872D01*
X11926976Y3598621D01*
X11938863Y3540963D01*
X11939066Y3538931D01*
X11939066Y2428697D01*
X11938152Y2410358D01*
X11935612Y2393492D01*
X11931446Y2377033D01*
X11925655Y2360980D01*
X11918391Y2345639D01*
X11909602Y2331008D01*
X11899493Y2317394D01*
X11888063Y2304745D01*
X11875211Y2293061D01*
X11363045Y1869998D01*
X11348212Y1858975D01*
X11333480Y1850136D01*
X11317986Y1842820D01*
X11301780Y1837029D01*
X11285169Y1832914D01*
X11268151Y1830425D01*
X11250676Y1829562D01*
X10077754Y1829562D01*
X10056825Y1828596D01*
X10034879Y1825498D01*
X10032034Y1824939D01*
X10010546Y1819402D01*
X9989718Y1811782D01*
X9969754Y1802180D01*
X9950805Y1790649D01*
X9935362Y1779219D01*
X9918852Y1764436D01*
X9916769Y1762353D01*
X9901986Y1745843D01*
X9888931Y1727962D01*
X9879025Y1711452D01*
X9869424Y1691436D01*
X9860940Y1667865D01*
X9856266Y1649171D01*
X9852609Y1624380D01*
X9851644Y1603451D01*
X9851644Y833729D01*
X9850831Y829868D01*
X9848646Y826566D01*
X9845344Y824331D01*
G37*

%LPC*%
G36*
X10036810Y2049068D02*
G01*
X10052405Y2049068D01*
X10058704Y2049780D01*
X10064191Y2051710D01*
X10069068Y2054758D01*
X10073182Y2058873D01*
X10076230Y2063750D01*
X10078161Y2069236D01*
X10078872Y2075535D01*
X10078872Y2086152D01*
X10036810Y2086152D01*
G37*
G36*
X9622891Y1241450D02*
G01*
X9636506Y1241907D01*
X9649968Y1244142D01*
X9662972Y1248206D01*
X9675368Y1253947D01*
X9686848Y1261262D01*
X9697262Y1270101D01*
X9706406Y1280210D01*
X9714128Y1291437D01*
X9720275Y1303629D01*
X9724745Y1316482D01*
X9727488Y1329842D01*
X9728403Y1343456D01*
X9727488Y1357071D01*
X9724745Y1370431D01*
X9720275Y1383334D01*
X9714128Y1395476D01*
X9706406Y1406702D01*
X9697262Y1416862D01*
X9686848Y1425651D01*
X9675368Y1432966D01*
X9662972Y1438706D01*
X9649968Y1442770D01*
X9636506Y1445056D01*
X9622891Y1445463D01*
X9609328Y1444142D01*
X9596069Y1440942D01*
X9583318Y1436065D01*
X9571380Y1429512D01*
X9560407Y1421434D01*
X9550603Y1411935D01*
X9542119Y1401216D01*
X9535210Y1389481D01*
X9529876Y1376934D01*
X9526270Y1363776D01*
X9524441Y1350264D01*
X9524441Y1336649D01*
X9526270Y1323136D01*
X9529876Y1309979D01*
X9535210Y1297432D01*
X9542119Y1285697D01*
X9550603Y1274978D01*
X9560407Y1265478D01*
X9571380Y1257401D01*
X9583318Y1250848D01*
X9596069Y1245971D01*
X9609328Y1242771D01*
G37*
G36*
X11277803Y3356254D02*
G01*
X11291417Y3356711D01*
X11304879Y3358946D01*
X11317884Y3363010D01*
X11330228Y3368751D01*
X11341760Y3376066D01*
X11352174Y3384905D01*
X11361318Y3395014D01*
X11369040Y3406241D01*
X11375186Y3418433D01*
X11379657Y3431286D01*
X11382349Y3444646D01*
X11383264Y3458260D01*
X11382349Y3471875D01*
X11379657Y3485235D01*
X11375186Y3498138D01*
X11369040Y3510279D01*
X11361318Y3521557D01*
X11352174Y3531666D01*
X11341760Y3540455D01*
X11330228Y3547821D01*
X11317884Y3553561D01*
X11304879Y3557574D01*
X11291417Y3559860D01*
X11277803Y3560318D01*
X11264188Y3558946D01*
X11250930Y3555796D01*
X11238230Y3550869D01*
X11226241Y3544315D01*
X11215268Y3536238D01*
X11205464Y3526739D01*
X11197031Y3516071D01*
X11190071Y3504336D01*
X11184737Y3491737D01*
X11181130Y3478631D01*
X11179352Y3465118D01*
X11179352Y3451453D01*
X11181130Y3437940D01*
X11184737Y3424783D01*
X11190071Y3412236D01*
X11197031Y3400501D01*
X11205464Y3389782D01*
X11215268Y3380333D01*
X11226241Y3372205D01*
X11238230Y3365652D01*
X11250930Y3360775D01*
X11264188Y3357626D01*
G37*
G36*
X9963556Y2049068D02*
G01*
X9979101Y2049068D01*
X9979101Y2086152D01*
X9937038Y2086152D01*
X9937038Y2075535D01*
X9937750Y2069236D01*
X9939680Y2063750D01*
X9942779Y2058873D01*
X9946843Y2054758D01*
X9951770Y2051710D01*
X9957206Y2049780D01*
G37*

%LPD*%
G36*
X7864398Y138125D02*
G01*
X7846466Y139090D01*
X7829600Y141630D01*
X7813040Y145796D01*
X7796987Y151638D01*
X7781544Y158953D01*
X7766913Y167792D01*
X7753248Y178003D01*
X7740599Y189484D01*
X7729169Y202184D01*
X7719059Y215950D01*
X7710322Y230632D01*
X7703058Y246075D01*
X7697368Y262178D01*
X7693253Y278739D01*
X7690815Y295656D01*
X7689951Y313080D01*
X7689951Y1302715D01*
X7689037Y1317548D01*
X7688529Y1321358D01*
X7686090Y1333703D01*
X7685074Y1337462D01*
X7681061Y1349349D01*
X7679537Y1352956D01*
X7674000Y1364234D01*
X7672019Y1367586D01*
X7665059Y1378051D01*
X7662672Y1381150D01*
X7654391Y1390599D01*
X7651648Y1393342D01*
X7642199Y1401673D01*
X7639100Y1404010D01*
X7628636Y1411020D01*
X7625283Y1412951D01*
X7614005Y1418539D01*
X7610398Y1420012D01*
X7598460Y1424076D01*
X7594752Y1425041D01*
X7582408Y1427530D01*
X7578547Y1428038D01*
X7563713Y1428902D01*
X5842101Y1428902D01*
X5829604Y1429867D01*
X5819343Y1432255D01*
X5809488Y1436014D01*
X5800242Y1441145D01*
X5791860Y1447596D01*
X5784494Y1455115D01*
X5778246Y1463598D01*
X5773267Y1472946D01*
X5769660Y1482852D01*
X5767527Y1493215D01*
X5766765Y1504238D01*
X5766765Y1533245D01*
X5765850Y1548079D01*
X5765342Y1551889D01*
X5762904Y1564233D01*
X5761888Y1567992D01*
X5757875Y1579930D01*
X5756351Y1583486D01*
X5750814Y1594815D01*
X5748883Y1598168D01*
X5741873Y1608632D01*
X5739485Y1611680D01*
X5731205Y1621180D01*
X5728462Y1623923D01*
X5719013Y1632204D01*
X5715914Y1634591D01*
X5705449Y1641551D01*
X5702096Y1643481D01*
X5690819Y1649069D01*
X5687212Y1650542D01*
X5675325Y1654606D01*
X5671566Y1655622D01*
X5659221Y1658061D01*
X5655360Y1658569D01*
X5640527Y1659483D01*
X5382869Y1659483D01*
X5370372Y1660448D01*
X5360060Y1662785D01*
X5350205Y1666544D01*
X5341010Y1671726D01*
X5332628Y1678127D01*
X5325211Y1685645D01*
X5319014Y1694180D01*
X5314035Y1703476D01*
X5310428Y1713433D01*
X5308295Y1723745D01*
X5307533Y1734820D01*
X5307533Y3300679D01*
X5308447Y3319068D01*
X5311038Y3335985D01*
X5315204Y3352546D01*
X5320995Y3368598D01*
X5328361Y3383991D01*
X5337200Y3398621D01*
X5347411Y3412337D01*
X5358892Y3424936D01*
X5371592Y3436365D01*
X5385358Y3446526D01*
X5400040Y3455263D01*
X5415483Y3462528D01*
X5431586Y3468217D01*
X5448147Y3472332D01*
X5465064Y3474770D01*
X5482488Y3475634D01*
X5531307Y3475634D01*
X5546140Y3476548D01*
X5549950Y3477006D01*
X5562295Y3479495D01*
X5566054Y3480511D01*
X5577992Y3484524D01*
X5581548Y3486048D01*
X5592826Y3491585D01*
X5596229Y3493515D01*
X5606694Y3500526D01*
X5609742Y3502863D01*
X5619242Y3511194D01*
X5621985Y3513937D01*
X5630265Y3523386D01*
X5632653Y3526485D01*
X5639612Y3536950D01*
X5641543Y3540302D01*
X5647131Y3551580D01*
X5648604Y3555187D01*
X5652668Y3567074D01*
X5653684Y3570833D01*
X5656122Y3583178D01*
X5656630Y3586987D01*
X5657545Y3601821D01*
X5657545Y5325516D01*
X5658510Y5338013D01*
X5660847Y5348325D01*
X5664606Y5358180D01*
X5669788Y5367375D01*
X5676188Y5375757D01*
X5683707Y5383174D01*
X5692241Y5389422D01*
X5701538Y5394350D01*
X5711494Y5397957D01*
X5721807Y5400090D01*
X5732881Y5400852D01*
X5778449Y5400852D01*
X5782767Y5399887D01*
X5786272Y5397144D01*
X5788304Y5393182D01*
X5788406Y5388711D01*
X5786577Y5384647D01*
X5783224Y5381752D01*
X5781192Y5380685D01*
X5774639Y5375249D01*
X5699150Y5299760D01*
X5693714Y5293207D01*
X5689955Y5286146D01*
X5687618Y5278475D01*
X5686806Y5269992D01*
X5686806Y4064508D01*
X5687618Y4056024D01*
X5689955Y4048353D01*
X5693714Y4041292D01*
X5699150Y4034739D01*
X5723839Y4010050D01*
X5730392Y4004614D01*
X5737453Y4000855D01*
X5745124Y3998518D01*
X5753608Y3997706D01*
X6293764Y3997706D01*
X6298031Y3996740D01*
X6301536Y3994099D01*
X6303568Y3990187D01*
X6303772Y3985818D01*
X6302146Y3981754D01*
X6298946Y3978757D01*
X6294729Y3977436D01*
X6291224Y3977081D01*
X6283553Y3974744D01*
X6276492Y3970985D01*
X6269939Y3965549D01*
X6092850Y3788460D01*
X6087414Y3781907D01*
X6083655Y3774846D01*
X6081318Y3767175D01*
X6080506Y3758692D01*
X6080506Y3513632D01*
X6079744Y3509772D01*
X6077508Y3506470D01*
X5971997Y3400958D01*
X5968695Y3398723D01*
X5964834Y3397961D01*
X5752642Y3397961D01*
X5748985Y3398672D01*
X5745835Y3400602D01*
X5743549Y3403549D01*
X5740755Y3409086D01*
X5733034Y3420364D01*
X5723890Y3430473D01*
X5713476Y3439261D01*
X5701995Y3446627D01*
X5689600Y3452368D01*
X5676595Y3456381D01*
X5663133Y3458667D01*
X5649518Y3459124D01*
X5635955Y3457752D01*
X5622696Y3454603D01*
X5609945Y3449675D01*
X5598007Y3443122D01*
X5587034Y3435045D01*
X5577230Y3425545D01*
X5568746Y3414877D01*
X5561787Y3403142D01*
X5556504Y3390544D01*
X5552897Y3377437D01*
X5551068Y3363874D01*
X5551068Y3350260D01*
X5552897Y3336747D01*
X5556504Y3323590D01*
X5561787Y3311042D01*
X5568746Y3299307D01*
X5577230Y3288588D01*
X5587034Y3279140D01*
X5598007Y3271012D01*
X5609945Y3264458D01*
X5622696Y3259582D01*
X5635955Y3256432D01*
X5649518Y3255060D01*
X5663133Y3255517D01*
X5676595Y3257753D01*
X5689600Y3261817D01*
X5701995Y3267557D01*
X5713476Y3274872D01*
X5723890Y3283712D01*
X5733034Y3293821D01*
X5740755Y3305048D01*
X5743549Y3310585D01*
X5745784Y3313531D01*
X5748985Y3315462D01*
X5752642Y3316173D01*
X5985459Y3316173D01*
X5993942Y3316986D01*
X6001613Y3319322D01*
X6008674Y3323082D01*
X6015228Y3328517D01*
X6149949Y3463239D01*
X6155385Y3469792D01*
X6159144Y3476853D01*
X6161481Y3484524D01*
X6162294Y3493008D01*
X6162294Y3529736D01*
X6163259Y3534003D01*
X6165850Y3537458D01*
X6169710Y3539540D01*
X6174079Y3539794D01*
X6178092Y3538169D01*
X6181140Y3535070D01*
X6182563Y3530955D01*
X6182969Y3527348D01*
X6187795Y3503218D01*
X6194450Y3479495D01*
X6202984Y3456432D01*
X6213297Y3434079D01*
X6225336Y3412591D01*
X6239002Y3392119D01*
X6254242Y3372764D01*
X6270955Y3354679D01*
X6289040Y3337966D01*
X6308394Y3322726D01*
X6326276Y3310788D01*
X6329324Y3307537D01*
X6330746Y3303320D01*
X6330188Y3298901D01*
X6327800Y3295142D01*
X6326784Y3294075D01*
X6323330Y3288639D01*
X6321044Y3286099D01*
X6318097Y3284423D01*
X6314744Y3283864D01*
X6278778Y3283864D01*
X6270294Y3283051D01*
X6262624Y3280714D01*
X6255562Y3276955D01*
X6249009Y3271520D01*
X6100419Y3122930D01*
X6094984Y3116376D01*
X6091224Y3109315D01*
X6088888Y3101644D01*
X6088075Y3093161D01*
X6088075Y2954223D01*
X6087516Y2950870D01*
X6085840Y2947873D01*
X6083300Y2945638D01*
X6079388Y2943148D01*
X6075883Y2941777D01*
X6072073Y2941777D01*
X6068568Y2943148D01*
X6065215Y2945282D01*
X6059728Y2947212D01*
X6053429Y2947924D01*
X6042812Y2947924D01*
X6042812Y2905861D01*
X6057900Y2905861D01*
X6061811Y2905099D01*
X6065113Y2902864D01*
X6067298Y2899562D01*
X6068060Y2895701D01*
X6068060Y2858312D01*
X6067298Y2854401D01*
X6065113Y2851150D01*
X6061811Y2848914D01*
X6057900Y2848152D01*
X6042812Y2848152D01*
X6042812Y2806090D01*
X6053429Y2806090D01*
X6059728Y2806801D01*
X6065215Y2808732D01*
X6068568Y2810865D01*
X6072073Y2812237D01*
X6075883Y2812237D01*
X6079388Y2810865D01*
X6082741Y2808732D01*
X6088227Y2806801D01*
X6094526Y2806090D01*
X6163411Y2806090D01*
X6169710Y2806801D01*
X6175197Y2808732D01*
X6180074Y2811780D01*
X6184188Y2815894D01*
X6187287Y2820771D01*
X6189167Y2826258D01*
X6189878Y2832557D01*
X6189878Y2921457D01*
X6189167Y2927756D01*
X6187287Y2933242D01*
X6184188Y2938119D01*
X6180074Y2942234D01*
X6174638Y2945638D01*
X6172098Y2947924D01*
X6170472Y2950870D01*
X6169863Y2954223D01*
X6169863Y3072536D01*
X6170676Y3076397D01*
X6172860Y3079699D01*
X6292240Y3199079D01*
X6295542Y3201263D01*
X6299403Y3202076D01*
X6314744Y3202076D01*
X6318097Y3201466D01*
X6321094Y3199841D01*
X6323380Y3197301D01*
X6325819Y3193389D01*
X6327190Y3189884D01*
X6327190Y3186125D01*
X6325819Y3182569D01*
X6323076Y3178251D01*
X6320028Y3175152D01*
X6316014Y3173628D01*
X6312966Y3173171D01*
X6305042Y3170732D01*
X6297980Y3166973D01*
X6291427Y3161588D01*
X6232550Y3102660D01*
X6227114Y3096107D01*
X6223355Y3089046D01*
X6221018Y3081375D01*
X6220206Y3072892D01*
X6220206Y2826258D01*
X6219444Y2822397D01*
X6217208Y2819095D01*
X6144971Y2746857D01*
X6141720Y2744673D01*
X6137808Y2743911D01*
X6094526Y2743911D01*
X6088227Y2743200D01*
X6082741Y2741269D01*
X6079388Y2739136D01*
X6075883Y2737764D01*
X6072124Y2737764D01*
X6068568Y2739136D01*
X6065215Y2741269D01*
X6059728Y2743200D01*
X6053429Y2743911D01*
X6008573Y2743911D01*
X6004610Y2744724D01*
X6001258Y2747010D01*
X5999073Y2750464D01*
X5998464Y2754426D01*
X5999327Y2776524D01*
X5998362Y2801162D01*
X5995111Y2828239D01*
X5995111Y2848813D01*
X5992418Y2850388D01*
X5990285Y2852724D01*
X5989015Y2855569D01*
X5983986Y2873451D01*
X5977026Y2892196D01*
X5976416Y2896006D01*
X5977280Y2899816D01*
X5979515Y2902966D01*
X5982766Y2905099D01*
X5986576Y2905861D01*
X5995111Y2905861D01*
X5995111Y2947924D01*
X5984544Y2947924D01*
X5978245Y2947212D01*
X5972759Y2945282D01*
X5967882Y2942234D01*
X5963259Y2938983D01*
X5958840Y2938475D01*
X5954623Y2939846D01*
X5951423Y2942945D01*
X5939434Y2960878D01*
X5924194Y2980232D01*
X5907481Y2998266D01*
X5889396Y3014980D01*
X5870041Y3030270D01*
X5849569Y3043936D01*
X5828080Y3055975D01*
X5805728Y3066288D01*
X5782614Y3074771D01*
X5758942Y3081477D01*
X5734761Y3086303D01*
X5710326Y3089198D01*
X5685688Y3090164D01*
X5661101Y3089198D01*
X5636666Y3086303D01*
X5612485Y3081477D01*
X5588812Y3074771D01*
X5565698Y3066288D01*
X5543346Y3055975D01*
X5521858Y3043936D01*
X5501386Y3030270D01*
X5482031Y3014980D01*
X5463946Y2998266D01*
X5447233Y2980232D01*
X5431993Y2960878D01*
X5418328Y2940405D01*
X5406288Y2918917D01*
X5395976Y2896565D01*
X5387441Y2873451D01*
X5380786Y2849727D01*
X5375960Y2825597D01*
X5373065Y2801162D01*
X5372100Y2776524D01*
X5373065Y2751937D01*
X5375960Y2727502D01*
X5380786Y2703322D01*
X5387441Y2679649D01*
X5395976Y2656535D01*
X5406288Y2634183D01*
X5418328Y2612694D01*
X5431993Y2592222D01*
X5447233Y2572867D01*
X5463946Y2554782D01*
X5482031Y2538069D01*
X5501386Y2522829D01*
X5521858Y2509164D01*
X5543346Y2497124D01*
X5565698Y2486812D01*
X5588812Y2478278D01*
X5612485Y2471623D01*
X5636666Y2466797D01*
X5661101Y2463901D01*
X5685688Y2462936D01*
X5710326Y2463901D01*
X5734761Y2466797D01*
X5758942Y2471623D01*
X5782614Y2478278D01*
X5805728Y2486812D01*
X5828080Y2497124D01*
X5849569Y2509164D01*
X5870041Y2522829D01*
X5889396Y2538069D01*
X5907481Y2554782D01*
X5924194Y2572867D01*
X5939434Y2592222D01*
X5950153Y2608326D01*
X5953404Y2611374D01*
X5957620Y2612796D01*
X5962040Y2612237D01*
X5965799Y2609850D01*
X5967882Y2607767D01*
X5973318Y2604363D01*
X5975858Y2602077D01*
X5977534Y2599131D01*
X5978093Y2595778D01*
X5978093Y2592120D01*
X5978906Y2583637D01*
X5981242Y2575966D01*
X5985002Y2568905D01*
X5990437Y2562352D01*
X6047536Y2505252D01*
X6049721Y2501900D01*
X6050483Y2497937D01*
X6049670Y2494026D01*
X6047384Y2490724D01*
X6036970Y2480665D01*
X6028486Y2469997D01*
X6021527Y2458262D01*
X6016244Y2445664D01*
X6012637Y2432558D01*
X6010808Y2418994D01*
X6010808Y2405380D01*
X6012637Y2391867D01*
X6016244Y2378710D01*
X6021527Y2366162D01*
X6028486Y2354427D01*
X6036970Y2343708D01*
X6046774Y2334260D01*
X6057747Y2326132D01*
X6069685Y2319578D01*
X6082436Y2314702D01*
X6095695Y2311552D01*
X6109258Y2310180D01*
X6122873Y2310638D01*
X6136335Y2312873D01*
X6149340Y2316937D01*
X6161735Y2322677D01*
X6173216Y2329992D01*
X6183630Y2338832D01*
X6192774Y2348941D01*
X6200495Y2360168D01*
X6206642Y2372360D01*
X6211112Y2385212D01*
X6213856Y2398572D01*
X6214160Y2403652D01*
X6215176Y2407361D01*
X6217462Y2410460D01*
X6220764Y2412492D01*
X6224524Y2413101D01*
X6228283Y2412288D01*
X6231483Y2410155D01*
X6239256Y2402433D01*
X6245809Y2396998D01*
X6252870Y2393238D01*
X6260541Y2390902D01*
X6269024Y2390089D01*
X6311747Y2390089D01*
X6315100Y2389479D01*
X6318097Y2387854D01*
X6320332Y2385314D01*
X6322822Y2381402D01*
X6324193Y2377897D01*
X6324193Y2374087D01*
X6322822Y2370582D01*
X6320688Y2367178D01*
X6318758Y2361742D01*
X6318046Y2355392D01*
X6318046Y2344826D01*
X6360109Y2344826D01*
X6360109Y2359914D01*
X6360922Y2363825D01*
X6363106Y2367076D01*
X6366408Y2369312D01*
X6370269Y2370074D01*
X6407658Y2370074D01*
X6411569Y2369312D01*
X6414871Y2367076D01*
X6417056Y2363825D01*
X6417818Y2359914D01*
X6417818Y2344826D01*
X6459880Y2344826D01*
X6459880Y2355392D01*
X6459169Y2361742D01*
X6457238Y2367178D01*
X6455156Y2370582D01*
X6453733Y2374087D01*
X6453733Y2377897D01*
X6455156Y2381402D01*
X6457238Y2384755D01*
X6459169Y2390241D01*
X6459880Y2396540D01*
X6459880Y2465425D01*
X6459169Y2471724D01*
X6457238Y2477211D01*
X6454190Y2482088D01*
X6450076Y2486202D01*
X6445199Y2489250D01*
X6439712Y2491181D01*
X6433413Y2491892D01*
X6344564Y2491892D01*
X6338214Y2491181D01*
X6332778Y2489250D01*
X6327851Y2486202D01*
X6323787Y2482088D01*
X6320332Y2476652D01*
X6318097Y2474112D01*
X6315100Y2472436D01*
X6311747Y2471877D01*
X6289649Y2471877D01*
X6285788Y2472639D01*
X6282486Y2474874D01*
X6201460Y2555849D01*
X6194907Y2561285D01*
X6187846Y2565044D01*
X6180175Y2567381D01*
X6171692Y2568194D01*
X6104432Y2568194D01*
X6100572Y2568956D01*
X6097270Y2571191D01*
X6083350Y2585110D01*
X6081064Y2588615D01*
X6080353Y2592679D01*
X6081369Y2596692D01*
X6083909Y2599994D01*
X6087516Y2602026D01*
X6091631Y2602382D01*
X6094526Y2602077D01*
X6163411Y2602077D01*
X6169710Y2602788D01*
X6175197Y2604719D01*
X6180074Y2607767D01*
X6184188Y2611882D01*
X6186424Y2615438D01*
X6188862Y2618130D01*
X6192113Y2619756D01*
X6195720Y2620162D01*
X6199225Y2619298D01*
X6202222Y2617216D01*
X6269939Y2549550D01*
X6276492Y2544114D01*
X6283553Y2540355D01*
X6291224Y2538018D01*
X6299708Y2537206D01*
X6424726Y2537206D01*
X6428638Y2536393D01*
X6431889Y2534208D01*
X6519113Y2447036D01*
X6521297Y2443734D01*
X6522110Y2439822D01*
X6522110Y2396540D01*
X6522821Y2390241D01*
X6524701Y2384755D01*
X6526834Y2381402D01*
X6528206Y2377897D01*
X6528206Y2374087D01*
X6526834Y2370582D01*
X6524701Y2367229D01*
X6522821Y2361742D01*
X6522110Y2355443D01*
X6522110Y2311146D01*
X6521297Y2307183D01*
X6518960Y2303830D01*
X6515557Y2301646D01*
X6511544Y2300986D01*
X6490919Y2301798D01*
X6466281Y2300833D01*
X6441795Y2297938D01*
X6436817Y2297125D01*
X6417106Y2297125D01*
X6415532Y2294432D01*
X6413246Y2292350D01*
X6410452Y2291080D01*
X6393840Y2286406D01*
X6373825Y2278989D01*
X6369964Y2278380D01*
X6366205Y2279243D01*
X6363004Y2281428D01*
X6360871Y2284679D01*
X6360109Y2288489D01*
X6360109Y2297125D01*
X6318046Y2297125D01*
X6318046Y2286558D01*
X6318758Y2280208D01*
X6320688Y2274773D01*
X6323787Y2269845D01*
X6324904Y2268728D01*
X6327292Y2264968D01*
X6327851Y2260549D01*
X6326428Y2256332D01*
X6323380Y2253132D01*
X6306312Y2241702D01*
X6286957Y2226411D01*
X6268872Y2209596D01*
X6252159Y2191461D01*
X6236919Y2172055D01*
X6223254Y2151532D01*
X6211214Y2129993D01*
X6200952Y2107539D01*
X6192469Y2084374D01*
X6185814Y2060651D01*
X6181090Y2036419D01*
X6178245Y2011934D01*
X6177330Y1987550D01*
X6178245Y1962759D01*
X6181090Y1938274D01*
X6185814Y1914042D01*
X6192469Y1890268D01*
X6200952Y1867103D01*
X6211214Y1844700D01*
X6223254Y1823161D01*
X6236919Y1802587D01*
X6252159Y1783232D01*
X6268872Y1765046D01*
X6286957Y1748282D01*
X6306312Y1732991D01*
X6326784Y1719275D01*
X6348323Y1707184D01*
X6370726Y1696872D01*
X6393840Y1688287D01*
X6417614Y1681581D01*
X6441795Y1676755D01*
X6466281Y1673860D01*
X6490919Y1672894D01*
X6515607Y1673860D01*
X6540093Y1676755D01*
X6564274Y1681581D01*
X6588048Y1688287D01*
X6611162Y1696872D01*
X6633565Y1707184D01*
X6655053Y1719275D01*
X6675577Y1732991D01*
X6694931Y1748282D01*
X6713016Y1765046D01*
X6729730Y1783232D01*
X6744970Y1802587D01*
X6758635Y1823161D01*
X6770674Y1844700D01*
X6780936Y1867103D01*
X6789420Y1890268D01*
X6796074Y1914042D01*
X6800799Y1938274D01*
X6803644Y1962759D01*
X6804507Y1987143D01*
X6803644Y2011934D01*
X6800799Y2036419D01*
X6796074Y2060651D01*
X6789420Y2084374D01*
X6780936Y2107539D01*
X6770674Y2129993D01*
X6758635Y2151532D01*
X6744970Y2172055D01*
X6729730Y2191461D01*
X6713016Y2209596D01*
X6694931Y2226411D01*
X6675577Y2241702D01*
X6658559Y2253081D01*
X6655511Y2256332D01*
X6654088Y2260549D01*
X6654647Y2264968D01*
X6657035Y2268728D01*
X6658203Y2269896D01*
X6661607Y2275332D01*
X6663893Y2277872D01*
X6666890Y2279497D01*
X6670243Y2280107D01*
X6740093Y2280107D01*
X6748576Y2280920D01*
X6756247Y2283256D01*
X6763308Y2287016D01*
X6769862Y2292451D01*
X6863842Y2373680D01*
X6867296Y2377592D01*
X6868922Y2379878D01*
X6871563Y2384399D01*
X6872731Y2386939D01*
X6874408Y2391867D01*
X6875068Y2394610D01*
X6875780Y2399741D01*
X6875881Y2602738D01*
X6876491Y2606090D01*
X6878116Y2609088D01*
X6880656Y2611374D01*
X6884568Y2613812D01*
X6888124Y2615184D01*
X6891883Y2615184D01*
X6895388Y2613812D01*
X6898792Y2611678D01*
X6904228Y2609799D01*
X6910578Y2609088D01*
X6921144Y2609088D01*
X6921144Y2651150D01*
X6906056Y2651150D01*
X6902196Y2651912D01*
X6898894Y2654096D01*
X6896658Y2657398D01*
X6895896Y2661310D01*
X6895896Y2698648D01*
X6896658Y2702560D01*
X6898894Y2705862D01*
X6902196Y2708046D01*
X6906056Y2708808D01*
X6921144Y2708808D01*
X6921144Y2750870D01*
X6910578Y2750870D01*
X6904228Y2750159D01*
X6898792Y2748280D01*
X6895388Y2746146D01*
X6891883Y2744774D01*
X6888124Y2744774D01*
X6884568Y2746146D01*
X6881215Y2748280D01*
X6875729Y2750159D01*
X6869430Y2750870D01*
X6808368Y2750870D01*
X6804507Y2751683D01*
X6801205Y2753868D01*
X6798970Y2757170D01*
X6798208Y2761030D01*
X6798970Y2764942D01*
X6801205Y2768244D01*
X6843064Y2810103D01*
X6846366Y2812338D01*
X6850278Y2813100D01*
X6869430Y2813100D01*
X6875729Y2813812D01*
X6881215Y2815742D01*
X6884568Y2817825D01*
X6888073Y2819196D01*
X6891883Y2819196D01*
X6895388Y2817825D01*
X6898741Y2815742D01*
X6904228Y2813812D01*
X6910527Y2813100D01*
X6955485Y2813100D01*
X6959447Y2812288D01*
X6962800Y2810002D01*
X6964984Y2806547D01*
X6965645Y2802585D01*
X6964832Y2781401D01*
X6965746Y2756611D01*
X6968845Y2729687D01*
X6968845Y2708198D01*
X6971639Y2706674D01*
X6973824Y2704287D01*
X6975144Y2701391D01*
X6979970Y2684119D01*
X6987031Y2664764D01*
X6987641Y2660954D01*
X6986778Y2657195D01*
X6984593Y2653995D01*
X6981291Y2651861D01*
X6977481Y2651150D01*
X6968845Y2651150D01*
X6968845Y2609088D01*
X6979412Y2609088D01*
X6985762Y2609799D01*
X6991197Y2611678D01*
X6996125Y2614777D01*
X7000748Y2618079D01*
X7005218Y2618587D01*
X7009434Y2617216D01*
X7012635Y2614117D01*
X7024420Y2596438D01*
X7039660Y2577033D01*
X7056374Y2558897D01*
X7074458Y2542133D01*
X7093813Y2526842D01*
X7114286Y2513126D01*
X7135825Y2501036D01*
X7158228Y2490673D01*
X7181342Y2482138D01*
X7205116Y2475433D01*
X7229297Y2470607D01*
X7253782Y2467711D01*
X7278420Y2466746D01*
X7303109Y2467711D01*
X7327595Y2470607D01*
X7351775Y2475433D01*
X7375550Y2482138D01*
X7398664Y2490673D01*
X7421067Y2501036D01*
X7442555Y2513126D01*
X7463078Y2526842D01*
X7482433Y2542133D01*
X7500518Y2558897D01*
X7517231Y2577033D01*
X7532471Y2596438D01*
X7546136Y2617012D01*
X7558176Y2638552D01*
X7568438Y2660954D01*
X7576921Y2684119D01*
X7583576Y2707894D01*
X7588300Y2732074D01*
X7591145Y2756611D01*
X7592009Y2780995D01*
X7591145Y2805785D01*
X7588300Y2830271D01*
X7583576Y2854452D01*
X7576921Y2878226D01*
X7568438Y2901391D01*
X7558176Y2923844D01*
X7546136Y2945384D01*
X7532471Y2965907D01*
X7517231Y2985312D01*
X7500518Y3003448D01*
X7482433Y3020212D01*
X7463078Y3035503D01*
X7442555Y3049270D01*
X7421067Y3061309D01*
X7398664Y3071672D01*
X7375550Y3080207D01*
X7351775Y3086963D01*
X7327595Y3091738D01*
X7303109Y3094685D01*
X7278420Y3095650D01*
X7253782Y3094685D01*
X7229297Y3091738D01*
X7205116Y3086963D01*
X7181342Y3080207D01*
X7158228Y3071672D01*
X7135825Y3061309D01*
X7114286Y3049270D01*
X7093813Y3035503D01*
X7074458Y3020212D01*
X7056374Y3003448D01*
X7039660Y2985312D01*
X7024420Y2965907D01*
X7013295Y2949194D01*
X7010044Y2946146D01*
X7005828Y2944723D01*
X7001408Y2945282D01*
X6997649Y2947670D01*
X6996074Y2949194D01*
X6990638Y2952648D01*
X6988098Y2954883D01*
X6986473Y2957880D01*
X6985863Y2961233D01*
X6985863Y2999536D01*
X6986676Y3003397D01*
X6988860Y3006699D01*
X7100570Y3118408D01*
X7103872Y3120593D01*
X7107732Y3121406D01*
X7433767Y3121406D01*
X7437628Y3120593D01*
X7440930Y3118408D01*
X7614208Y2945130D01*
X7616444Y2941828D01*
X7617206Y2937967D01*
X7617206Y2350008D01*
X7618018Y2341524D01*
X7620355Y2333853D01*
X7624114Y2326792D01*
X7629550Y2320239D01*
X7819339Y2130450D01*
X7825892Y2125014D01*
X7832953Y2121255D01*
X7840624Y2118918D01*
X7849108Y2118106D01*
X7954467Y2118106D01*
X7958328Y2117293D01*
X7961630Y2115108D01*
X7995208Y2081530D01*
X7997444Y2078228D01*
X7998206Y2074367D01*
X7998206Y2011172D01*
X7997698Y2008073D01*
X7996377Y2005330D01*
X7990281Y1996693D01*
X7986166Y1987753D01*
X7983626Y1978304D01*
X7982762Y1968500D01*
X7983626Y1958695D01*
X7986166Y1949246D01*
X7990281Y1940306D01*
X7995920Y1932279D01*
X8002879Y1925320D01*
X8010906Y1919681D01*
X8019846Y1915566D01*
X8029295Y1913026D01*
X8039100Y1912162D01*
X8048904Y1913026D01*
X8058353Y1915566D01*
X8067294Y1919681D01*
X8075320Y1925320D01*
X8082280Y1932279D01*
X8087918Y1940306D01*
X8092033Y1949246D01*
X8094573Y1958695D01*
X8095437Y1968500D01*
X8094573Y1978304D01*
X8092033Y1987753D01*
X8087918Y1996693D01*
X8081822Y2005330D01*
X8080502Y2008073D01*
X8079994Y2011172D01*
X8079994Y2094992D01*
X8079181Y2103475D01*
X8076844Y2111146D01*
X8073085Y2118207D01*
X8067649Y2124760D01*
X8004860Y2187549D01*
X7998307Y2192985D01*
X7991246Y2196744D01*
X7983575Y2199081D01*
X7975092Y2199894D01*
X7869732Y2199894D01*
X7865872Y2200656D01*
X7862570Y2202891D01*
X7701991Y2363470D01*
X7699806Y2366772D01*
X7698994Y2370632D01*
X7698994Y2958592D01*
X7698181Y2967075D01*
X7695844Y2974746D01*
X7692085Y2981807D01*
X7686649Y2988360D01*
X7484160Y3190849D01*
X7477607Y3196285D01*
X7470546Y3200044D01*
X7462875Y3202381D01*
X7454392Y3203194D01*
X7087108Y3203194D01*
X7078624Y3202381D01*
X7070953Y3200044D01*
X7063892Y3196285D01*
X7057339Y3190849D01*
X6916420Y3049981D01*
X6910984Y3043377D01*
X6907225Y3036316D01*
X6904888Y3028645D01*
X6904075Y3020161D01*
X6904075Y2961233D01*
X6903516Y2957880D01*
X6901840Y2954883D01*
X6899300Y2952648D01*
X6895388Y2950159D01*
X6891883Y2948787D01*
X6888073Y2948787D01*
X6884568Y2950159D01*
X6881215Y2952292D01*
X6875729Y2954223D01*
X6869430Y2954934D01*
X6822643Y2954934D01*
X6818782Y2955696D01*
X6815480Y2957880D01*
X6747560Y3025749D01*
X6741007Y3031185D01*
X6733946Y3034944D01*
X6726275Y3037281D01*
X6717792Y3038094D01*
X6548932Y3038094D01*
X6545072Y3038856D01*
X6541770Y3041091D01*
X6465874Y3116986D01*
X6463639Y3120288D01*
X6462877Y3124149D01*
X6462877Y3167430D01*
X6462166Y3173730D01*
X6460236Y3179216D01*
X6458153Y3182569D01*
X6456781Y3186125D01*
X6456781Y3189884D01*
X6458153Y3193389D01*
X6460236Y3196793D01*
X6462166Y3202228D01*
X6462877Y3208578D01*
X6462877Y3253435D01*
X6463690Y3257397D01*
X6466027Y3260750D01*
X6469430Y3262934D01*
X6473444Y3263595D01*
X6492697Y3262833D01*
X6517335Y3263798D01*
X6543649Y3266846D01*
X6567525Y3266846D01*
X6568998Y3269996D01*
X6571437Y3272434D01*
X6574536Y3273907D01*
X6589623Y3278174D01*
X6611162Y3286099D01*
X6615023Y3286760D01*
X6618782Y3285896D01*
X6621983Y3283661D01*
X6624116Y3280410D01*
X6624828Y3276600D01*
X6624828Y3266846D01*
X6666890Y3266846D01*
X6666890Y3277412D01*
X6666179Y3283762D01*
X6664299Y3289198D01*
X6661200Y3294126D01*
X6659168Y3296158D01*
X6656781Y3299917D01*
X6656222Y3304336D01*
X6657644Y3308553D01*
X6660692Y3311804D01*
X6677050Y3322726D01*
X6696405Y3337966D01*
X6714490Y3354679D01*
X6731203Y3372764D01*
X6746443Y3392119D01*
X6760108Y3412591D01*
X6772148Y3434079D01*
X6782460Y3456432D01*
X6790994Y3479495D01*
X6797649Y3503218D01*
X6802475Y3527348D01*
X6805371Y3551834D01*
X6806336Y3576421D01*
X6805371Y3601008D01*
X6802475Y3625494D01*
X6797649Y3649624D01*
X6790994Y3673348D01*
X6782460Y3696411D01*
X6772148Y3718814D01*
X6760108Y3740302D01*
X6746443Y3760774D01*
X6731203Y3780078D01*
X6714490Y3798163D01*
X6696405Y3814876D01*
X6677050Y3830116D01*
X6656578Y3843832D01*
X6635089Y3855821D01*
X6612737Y3866134D01*
X6589623Y3874668D01*
X6584391Y3876141D01*
X6580733Y3878072D01*
X6578142Y3881272D01*
X6577025Y3885234D01*
X6577584Y3889349D01*
X6579717Y3892854D01*
X6583121Y3895242D01*
X6587134Y3896106D01*
X6798767Y3896106D01*
X6802628Y3895293D01*
X6805930Y3893108D01*
X7154164Y3544925D01*
X7156246Y3541776D01*
X7157110Y3538118D01*
X7156551Y3534410D01*
X7154672Y3531108D01*
X7151725Y3528771D01*
X7147458Y3526485D01*
X7140905Y3521049D01*
X6915302Y3295497D01*
X6912152Y3293364D01*
X6908444Y3292551D01*
X6904685Y3293160D01*
X6901383Y3295091D01*
X6899046Y3298139D01*
X6898030Y3301796D01*
X6897522Y3307791D01*
X6894931Y3317290D01*
X6890816Y3326180D01*
X6885178Y3334207D01*
X6878218Y3341166D01*
X6870192Y3346805D01*
X6861251Y3350971D01*
X6851751Y3353511D01*
X6841998Y3354374D01*
X6832193Y3353511D01*
X6822694Y3350971D01*
X6813803Y3346805D01*
X6805726Y3341166D01*
X6803186Y3339033D01*
X6800900Y3338017D01*
X6793331Y3335731D01*
X6786270Y3331972D01*
X6779717Y3326587D01*
X6675272Y3222142D01*
X6671970Y3219907D01*
X6668109Y3219145D01*
X6624828Y3219145D01*
X6624828Y3204057D01*
X6624066Y3200196D01*
X6621881Y3196894D01*
X6618579Y3194659D01*
X6614668Y3193897D01*
X6577330Y3193897D01*
X6573418Y3194659D01*
X6570116Y3196894D01*
X6567931Y3200196D01*
X6567170Y3204057D01*
X6567170Y3219145D01*
X6525107Y3219145D01*
X6525107Y3208578D01*
X6525818Y3202279D01*
X6527698Y3196793D01*
X6529831Y3193389D01*
X6531203Y3189884D01*
X6531203Y3186125D01*
X6529831Y3182620D01*
X6527698Y3179216D01*
X6525818Y3173730D01*
X6525107Y3167430D01*
X6525107Y3098596D01*
X6525818Y3092246D01*
X6527698Y3086811D01*
X6530797Y3081883D01*
X6534861Y3077819D01*
X6539788Y3074720D01*
X6545224Y3072790D01*
X6551574Y3072079D01*
X6640423Y3072079D01*
X6646773Y3072790D01*
X6652209Y3074720D01*
X6657136Y3077819D01*
X6661200Y3081883D01*
X6664299Y3086811D01*
X6666179Y3092246D01*
X6666534Y3095142D01*
X6667703Y3098901D01*
X6670192Y3101898D01*
X6673291Y3104438D01*
X6726174Y3157321D01*
X6729984Y3159709D01*
X6734403Y3160268D01*
X6738670Y3158845D01*
X6741871Y3155696D01*
X6743446Y3151530D01*
X6744157Y3146247D01*
X6747764Y3133090D01*
X6753047Y3120542D01*
X6760006Y3108807D01*
X6768490Y3098088D01*
X6778294Y3088640D01*
X6789267Y3080512D01*
X6801205Y3073958D01*
X6813956Y3069082D01*
X6827215Y3065932D01*
X6840778Y3064560D01*
X6854393Y3065018D01*
X6867855Y3067253D01*
X6880859Y3071317D01*
X6893255Y3077057D01*
X6904736Y3084372D01*
X6915150Y3093212D01*
X6924294Y3103321D01*
X6932015Y3114548D01*
X6938162Y3126740D01*
X6942632Y3139592D01*
X6945375Y3152952D01*
X6946290Y3166567D01*
X6945375Y3180181D01*
X6942632Y3193542D01*
X6941210Y3197606D01*
X6940702Y3201314D01*
X6941515Y3205022D01*
X6943648Y3208121D01*
X7184136Y3448608D01*
X7187438Y3450844D01*
X7191298Y3451606D01*
X8583726Y3452063D01*
X8587486Y3451351D01*
X8590686Y3449320D01*
X8621877Y3420008D01*
X8624062Y3417011D01*
X8625027Y3413455D01*
X8624671Y3409797D01*
X8623046Y3406495D01*
X8620302Y3404006D01*
X8618270Y3402685D01*
X8616188Y3400602D01*
X8612886Y3398418D01*
X8608974Y3397605D01*
X8605113Y3398418D01*
X8601811Y3400602D01*
X8599678Y3402685D01*
X8594801Y3405784D01*
X8589314Y3407714D01*
X8583015Y3408426D01*
X8507933Y3408426D01*
X8501634Y3407714D01*
X8496147Y3405784D01*
X8491270Y3402685D01*
X8487156Y3398621D01*
X8484108Y3393694D01*
X8482177Y3388258D01*
X8481466Y3381908D01*
X8481466Y3357372D01*
X8480704Y3353460D01*
X8478520Y3350158D01*
X8475218Y3347974D01*
X8471306Y3347212D01*
X8077708Y3347212D01*
X8073440Y3348177D01*
X8069935Y3350818D01*
X8067903Y3354730D01*
X8066684Y3359404D01*
X8062518Y3368294D01*
X8056880Y3376320D01*
X8049920Y3383279D01*
X8041894Y3388918D01*
X8033003Y3393084D01*
X8023504Y3395624D01*
X8013700Y3396487D01*
X8003895Y3395624D01*
X7994396Y3393084D01*
X7985506Y3388918D01*
X7977479Y3383279D01*
X7970520Y3376320D01*
X7964881Y3368294D01*
X7960715Y3359404D01*
X7958175Y3349904D01*
X7957312Y3340100D01*
X7958175Y3330295D01*
X7960715Y3320796D01*
X7964881Y3311906D01*
X7970520Y3303879D01*
X7977479Y3296920D01*
X7985506Y3291281D01*
X7994396Y3287115D01*
X8003895Y3284575D01*
X8008366Y3284220D01*
X8011820Y3283305D01*
X8014665Y3281273D01*
X8018221Y3277717D01*
X8024825Y3272332D01*
X8031886Y3268522D01*
X8039557Y3266236D01*
X8047990Y3265373D01*
X8471306Y3265373D01*
X8475218Y3264611D01*
X8478520Y3262426D01*
X8480704Y3259124D01*
X8481466Y3255213D01*
X8481466Y3230676D01*
X8482177Y3224326D01*
X8484108Y3218891D01*
X8487156Y3213963D01*
X8491270Y3209899D01*
X8496300Y3206699D01*
X8498840Y3204464D01*
X8500516Y3201466D01*
X8501075Y3198114D01*
X8501075Y2714091D01*
X8500262Y2710129D01*
X8498027Y2706827D01*
X8494674Y2704642D01*
X8490762Y2703931D01*
X8486800Y2704795D01*
X8483549Y2707081D01*
X8481415Y2710484D01*
X8474913Y2727553D01*
X8464804Y2748940D01*
X8452967Y2769412D01*
X8439556Y2788818D01*
X8424621Y2807157D01*
X8408263Y2824175D01*
X8390585Y2839821D01*
X8371687Y2854045D01*
X8351723Y2866694D01*
X8330793Y2877667D01*
X8309051Y2886913D01*
X8286648Y2894380D01*
X8263686Y2900070D01*
X8240369Y2903829D01*
X8216798Y2905760D01*
X8193176Y2905760D01*
X8169656Y2903829D01*
X8146288Y2900070D01*
X8123377Y2894380D01*
X8100974Y2886913D01*
X8079231Y2877667D01*
X8058302Y2866694D01*
X8038338Y2854045D01*
X8019440Y2839821D01*
X8001762Y2824175D01*
X7985404Y2807157D01*
X7970418Y2788818D01*
X7957007Y2769412D01*
X7945221Y2748940D01*
X7935061Y2727553D01*
X7926679Y2705506D01*
X7920126Y2682798D01*
X7915402Y2659634D01*
X7912557Y2636164D01*
X7911592Y2612593D01*
X7912557Y2588971D01*
X7915402Y2565501D01*
X7920126Y2542336D01*
X7926679Y2519680D01*
X7935061Y2497582D01*
X7945221Y2476195D01*
X7957007Y2455773D01*
X7970418Y2436317D01*
X7985404Y2418029D01*
X8001762Y2400960D01*
X8019440Y2385314D01*
X8038338Y2371090D01*
X8058302Y2358491D01*
X8079231Y2347518D01*
X8100974Y2338222D01*
X8123377Y2330754D01*
X8146288Y2325116D01*
X8169656Y2321306D01*
X8193176Y2319426D01*
X8216798Y2319426D01*
X8240369Y2321306D01*
X8263686Y2325116D01*
X8286648Y2330754D01*
X8309051Y2338222D01*
X8330793Y2347518D01*
X8351723Y2358491D01*
X8371687Y2371090D01*
X8390585Y2385314D01*
X8408263Y2400960D01*
X8424621Y2418029D01*
X8439556Y2436317D01*
X8452967Y2455773D01*
X8464804Y2476195D01*
X8474913Y2497582D01*
X8481415Y2514650D01*
X8483549Y2518054D01*
X8486800Y2520340D01*
X8490762Y2521204D01*
X8494674Y2520492D01*
X8498027Y2518308D01*
X8500262Y2515006D01*
X8501075Y2511044D01*
X8501075Y1125169D01*
X8500313Y1121257D01*
X8498078Y1117955D01*
X8356346Y976223D01*
X8353196Y974090D01*
X8349488Y973226D01*
X8345678Y973836D01*
X8342426Y975817D01*
X8332165Y990447D01*
X8323021Y1000556D01*
X8312607Y1009396D01*
X8301126Y1016711D01*
X8288731Y1022451D01*
X8275726Y1026515D01*
X8262264Y1028750D01*
X8248650Y1029208D01*
X8235086Y1027836D01*
X8221827Y1024686D01*
X8209076Y1019810D01*
X8197138Y1013256D01*
X8186166Y1005128D01*
X8176361Y995680D01*
X8167878Y984961D01*
X8160918Y973226D01*
X8155635Y960678D01*
X8152028Y947521D01*
X8150199Y934008D01*
X8150199Y920394D01*
X8152028Y906881D01*
X8155635Y893724D01*
X8160918Y881176D01*
X8167878Y869442D01*
X8176361Y858723D01*
X8186166Y849223D01*
X8197138Y841146D01*
X8209076Y834593D01*
X8221827Y829716D01*
X8235086Y826516D01*
X8248650Y825144D01*
X8262264Y825601D01*
X8275726Y827887D01*
X8288731Y831951D01*
X8301126Y837692D01*
X8312607Y845007D01*
X8323021Y853795D01*
X8332165Y863904D01*
X8339886Y875182D01*
X8342680Y880719D01*
X8344916Y883666D01*
X8348116Y885596D01*
X8351774Y886307D01*
X8364677Y886307D01*
X8373160Y887120D01*
X8380831Y889457D01*
X8387892Y893216D01*
X8394446Y898652D01*
X8570569Y1074724D01*
X8575954Y1081278D01*
X8579713Y1088339D01*
X8582050Y1096010D01*
X8582914Y1104493D01*
X8582914Y3195421D01*
X8583726Y3199485D01*
X8586114Y3202889D01*
X8589670Y3205022D01*
X8594801Y3206800D01*
X8599678Y3209899D01*
X8601811Y3211982D01*
X8605113Y3214217D01*
X8608974Y3214979D01*
X8612886Y3214217D01*
X8616188Y3211982D01*
X8618270Y3209899D01*
X8623147Y3206800D01*
X8628634Y3204921D01*
X8634933Y3204210D01*
X8710015Y3204210D01*
X8716314Y3204921D01*
X8721801Y3206800D01*
X8726678Y3209899D01*
X8728811Y3211982D01*
X8732113Y3214217D01*
X8735974Y3214979D01*
X8739886Y3214217D01*
X8743188Y3211982D01*
X8745270Y3209899D01*
X8750147Y3206800D01*
X8755634Y3204921D01*
X8761933Y3204210D01*
X8826246Y3204210D01*
X8830106Y3203397D01*
X8833408Y3201212D01*
X8835644Y3197910D01*
X8836406Y3194050D01*
X8836406Y3003804D01*
X8835898Y3000756D01*
X8834526Y2997962D01*
X8832392Y2995726D01*
X8826804Y2991510D01*
X8818778Y2983128D01*
X8812072Y2973628D01*
X8806942Y2963214D01*
X8803436Y2952140D01*
X8801658Y2940659D01*
X8801658Y2929026D01*
X8803436Y2917545D01*
X8806942Y2906471D01*
X8812072Y2896057D01*
X8818778Y2886557D01*
X8826804Y2878226D01*
X8832392Y2873959D01*
X8834526Y2871724D01*
X8835898Y2868930D01*
X8836406Y2865882D01*
X8836406Y897432D01*
X8835644Y893571D01*
X8833408Y890269D01*
X8742324Y799134D01*
X8736888Y792581D01*
X8733129Y785520D01*
X8730792Y777849D01*
X8729980Y769366D01*
X8729980Y423214D01*
X8729218Y419354D01*
X8726982Y416051D01*
X8692896Y381965D01*
X8689594Y379730D01*
X8685733Y378968D01*
X8602472Y378968D01*
X8598763Y379679D01*
X8595563Y381660D01*
X8593328Y384708D01*
X8592312Y388366D01*
X8592718Y392074D01*
X8593378Y394157D01*
X8594140Y402183D01*
X8594140Y761187D01*
X8593378Y769213D01*
X8591143Y776427D01*
X8587587Y783082D01*
X8582812Y788924D01*
X8576970Y793750D01*
X8570315Y797306D01*
X8563051Y799490D01*
X8555024Y800303D01*
X7806029Y800303D01*
X7798003Y799490D01*
X7790789Y797306D01*
X7784134Y793750D01*
X7778292Y788924D01*
X7773466Y783082D01*
X7769910Y776427D01*
X7767726Y769213D01*
X7766913Y761187D01*
X7766913Y402183D01*
X7767726Y394157D01*
X7769910Y386943D01*
X7773568Y380034D01*
X7776514Y376123D01*
X7780883Y371805D01*
X7786878Y368147D01*
X7790789Y366064D01*
X7798003Y363880D01*
X7806029Y363067D01*
X7872069Y363067D01*
X7876184Y362204D01*
X7879588Y359765D01*
X7881670Y356158D01*
X7882178Y351993D01*
X7881162Y340969D01*
X7882026Y331216D01*
X7884566Y321716D01*
X7888681Y312826D01*
X7894320Y304749D01*
X7901279Y297840D01*
X7909306Y292201D01*
X7918246Y288036D01*
X7927695Y285496D01*
X7937500Y284632D01*
X7947304Y285496D01*
X7956753Y288036D01*
X7965694Y292201D01*
X7970062Y295249D01*
X7972806Y296621D01*
X7975853Y297078D01*
X8000746Y297078D01*
X8004098Y296519D01*
X8007045Y294894D01*
X8009331Y292354D01*
X8011820Y288391D01*
X8013192Y284886D01*
X8013192Y281076D01*
X8011820Y277571D01*
X8009686Y274218D01*
X8007756Y268732D01*
X8007045Y262432D01*
X8007045Y251815D01*
X8049107Y251815D01*
X8049107Y266903D01*
X8049920Y270814D01*
X8052104Y274116D01*
X8055406Y276301D01*
X8059267Y277063D01*
X8096656Y277063D01*
X8100568Y276301D01*
X8103870Y274116D01*
X8106054Y270814D01*
X8106816Y266903D01*
X8106816Y251815D01*
X8148878Y251815D01*
X8148878Y262432D01*
X8148167Y268732D01*
X8146237Y274218D01*
X8144154Y277571D01*
X8142731Y281076D01*
X8142731Y284886D01*
X8144154Y288391D01*
X8146237Y291795D01*
X8148167Y297230D01*
X8148878Y303580D01*
X8148878Y352907D01*
X8149640Y356819D01*
X8151875Y360121D01*
X8155127Y362305D01*
X8159038Y363067D01*
X8200948Y363067D01*
X8204809Y362305D01*
X8208111Y360121D01*
X8210296Y356819D01*
X8211108Y352907D01*
X8211108Y303580D01*
X8211820Y297230D01*
X8213699Y291795D01*
X8215833Y288391D01*
X8217204Y284886D01*
X8217204Y281127D01*
X8215833Y277571D01*
X8213699Y274218D01*
X8211820Y268782D01*
X8211108Y262432D01*
X8211108Y193598D01*
X8211820Y187248D01*
X8213699Y181813D01*
X8216798Y176885D01*
X8220862Y172821D01*
X8225790Y169722D01*
X8231225Y167792D01*
X8237575Y167081D01*
X8326424Y167081D01*
X8332724Y167792D01*
X8338210Y169722D01*
X8343087Y172821D01*
X8347202Y176885D01*
X8350605Y182372D01*
X8352891Y184912D01*
X8355888Y186537D01*
X8359241Y187096D01*
X8378291Y187096D01*
X8381339Y186639D01*
X8384133Y185267D01*
X8391906Y179781D01*
X8400846Y175666D01*
X8410295Y173126D01*
X8420100Y172262D01*
X8429904Y173126D01*
X8439353Y175666D01*
X8448294Y179781D01*
X8456320Y185420D01*
X8463280Y192379D01*
X8468918Y200406D01*
X8473033Y209346D01*
X8475573Y218795D01*
X8476437Y228600D01*
X8475573Y238404D01*
X8473033Y247853D01*
X8468918Y256794D01*
X8463280Y264820D01*
X8456320Y271780D01*
X8444280Y280111D01*
X8442198Y283413D01*
X8441537Y287274D01*
X8442401Y291084D01*
X8444636Y294284D01*
X8447887Y296418D01*
X8451697Y297180D01*
X8706358Y297180D01*
X8714841Y297992D01*
X8722512Y300329D01*
X8729573Y304088D01*
X8736126Y309524D01*
X8799423Y372821D01*
X8804859Y379374D01*
X8808618Y386435D01*
X8810955Y394106D01*
X8811768Y402590D01*
X8811768Y748741D01*
X8812580Y752602D01*
X8814765Y755904D01*
X8891270Y832408D01*
X8894572Y834593D01*
X8898432Y835406D01*
X9705543Y835406D01*
X9709404Y834593D01*
X9712706Y832408D01*
X9738868Y806246D01*
X9741255Y802182D01*
X9745319Y799795D01*
X9782098Y763016D01*
X9784283Y759714D01*
X9785096Y755853D01*
X9785096Y425145D01*
X9784283Y421284D01*
X9782098Y417982D01*
X9756495Y392379D01*
X9753041Y390093D01*
X9748977Y389382D01*
X9744964Y390347D01*
X9741662Y392836D01*
X9739630Y396443D01*
X9739172Y400558D01*
X9739376Y402183D01*
X9739376Y761187D01*
X9738563Y769213D01*
X9736378Y776427D01*
X9732822Y783082D01*
X9730282Y786180D01*
X9728606Y789533D01*
X9725253Y791210D01*
X9722154Y793750D01*
X9715500Y797306D01*
X9708286Y799490D01*
X9700260Y800303D01*
X8951264Y800303D01*
X8943238Y799490D01*
X8935974Y797306D01*
X8929319Y793750D01*
X8923477Y788924D01*
X8918702Y783082D01*
X8915146Y776427D01*
X8912910Y769213D01*
X8912148Y761187D01*
X8912148Y473760D01*
X8911742Y449224D01*
X8912148Y444398D01*
X8912148Y402183D01*
X8912910Y394157D01*
X8915146Y386943D01*
X8918702Y380238D01*
X8923477Y374396D01*
X8929319Y369620D01*
X8935974Y366064D01*
X8943238Y363880D01*
X8951264Y363067D01*
X9014815Y363067D01*
X9018930Y362204D01*
X9022334Y359765D01*
X9024467Y356158D01*
X9024924Y352044D01*
X9024162Y342900D01*
X9025026Y333095D01*
X9027566Y323646D01*
X9031681Y314706D01*
X9037320Y306679D01*
X9044279Y299720D01*
X9052306Y294081D01*
X9061246Y289966D01*
X9070695Y287426D01*
X9080500Y286562D01*
X9090304Y287426D01*
X9099753Y289966D01*
X9108694Y294081D01*
X9113621Y297535D01*
X9116364Y298907D01*
X9119412Y299364D01*
X9145828Y299364D01*
X9149892Y298551D01*
X9153245Y296164D01*
X9157817Y288391D01*
X9159189Y284886D01*
X9159189Y281076D01*
X9157817Y277571D01*
X9155684Y274218D01*
X9153753Y268732D01*
X9153042Y262432D01*
X9153042Y251815D01*
X9195104Y251815D01*
X9195104Y266903D01*
X9195917Y270814D01*
X9198102Y274116D01*
X9201404Y276301D01*
X9205264Y277063D01*
X9242653Y277063D01*
X9246565Y276301D01*
X9249867Y274116D01*
X9252051Y270814D01*
X9252813Y266903D01*
X9252813Y251815D01*
X9294876Y251815D01*
X9294876Y262432D01*
X9294164Y268732D01*
X9292234Y274218D01*
X9290151Y277571D01*
X9288729Y281076D01*
X9288729Y284886D01*
X9290151Y288391D01*
X9292234Y291795D01*
X9294164Y297230D01*
X9294876Y303580D01*
X9294876Y352907D01*
X9295638Y356819D01*
X9297873Y360121D01*
X9301124Y362305D01*
X9305036Y363067D01*
X9346946Y363067D01*
X9350806Y362305D01*
X9354108Y360121D01*
X9356293Y356819D01*
X9357106Y352907D01*
X9357106Y303580D01*
X9357817Y297230D01*
X9359696Y291795D01*
X9361830Y288391D01*
X9363202Y284886D01*
X9363202Y281127D01*
X9361830Y277571D01*
X9359696Y274218D01*
X9357817Y268782D01*
X9357106Y262432D01*
X9357106Y193598D01*
X9357817Y187248D01*
X9359696Y181813D01*
X9362795Y176885D01*
X9366859Y172821D01*
X9371787Y169722D01*
X9377222Y167792D01*
X9383572Y167081D01*
X9472422Y167081D01*
X9478721Y167792D01*
X9484207Y169722D01*
X9489084Y172821D01*
X9493199Y176885D01*
X9496602Y182372D01*
X9498888Y184912D01*
X9501886Y186537D01*
X9505238Y187096D01*
X9597491Y187096D01*
X9600539Y186639D01*
X9603333Y185267D01*
X9611106Y179781D01*
X9620046Y175666D01*
X9629495Y173126D01*
X9639300Y172262D01*
X9649104Y173126D01*
X9658553Y175666D01*
X9667494Y179781D01*
X9675520Y185420D01*
X9682480Y192379D01*
X9688118Y200406D01*
X9692233Y209346D01*
X9694773Y218795D01*
X9695637Y228600D01*
X9694773Y238404D01*
X9692233Y247853D01*
X9688118Y256794D01*
X9682480Y264820D01*
X9675520Y271780D01*
X9663633Y280009D01*
X9661550Y283362D01*
X9660940Y287172D01*
X9661753Y290982D01*
X9663988Y294182D01*
X9667240Y296367D01*
X9671050Y297078D01*
X9759492Y297078D01*
X9767976Y297942D01*
X9775596Y300228D01*
X9782657Y304038D01*
X9789261Y309422D01*
X9834270Y354431D01*
X9837572Y356666D01*
X9841484Y357428D01*
X9845344Y356666D01*
X9848646Y354431D01*
X9850831Y351129D01*
X9851644Y347268D01*
X9851593Y312572D01*
X9850678Y294640D01*
X9848138Y277774D01*
X9843922Y261213D01*
X9838131Y245160D01*
X9830765Y229717D01*
X9821976Y215138D01*
X9811766Y201422D01*
X9800234Y188823D01*
X9787534Y177393D01*
X9773818Y167233D01*
X9759137Y158496D01*
X9743643Y151231D01*
X9727590Y145542D01*
X9710978Y141427D01*
X9694113Y138988D01*
X9676688Y138125D01*
G37*

%LPC*%
G36*
X5900978Y3735120D02*
G01*
X5914593Y3735578D01*
X5928055Y3737813D01*
X5941060Y3741877D01*
X5953455Y3747617D01*
X5964936Y3754932D01*
X5975350Y3763772D01*
X5984494Y3773881D01*
X5992215Y3785108D01*
X5998362Y3797300D01*
X6002832Y3810152D01*
X6005576Y3823512D01*
X6006490Y3837127D01*
X6005576Y3850741D01*
X6002832Y3864101D01*
X5998362Y3877005D01*
X5992215Y3889146D01*
X5984494Y3900424D01*
X5975350Y3910533D01*
X5964936Y3919321D01*
X5953455Y3926687D01*
X5941060Y3932428D01*
X5928055Y3936441D01*
X5914593Y3938727D01*
X5900978Y3939184D01*
X5887415Y3937812D01*
X5874156Y3934663D01*
X5861405Y3929735D01*
X5849467Y3923182D01*
X5838494Y3915105D01*
X5828690Y3905605D01*
X5820206Y3894937D01*
X5813247Y3883202D01*
X5807964Y3870604D01*
X5804357Y3857498D01*
X5802528Y3843934D01*
X5802528Y3830320D01*
X5804357Y3816807D01*
X5807964Y3803650D01*
X5813247Y3791102D01*
X5820206Y3779367D01*
X5828690Y3768648D01*
X5838494Y3759200D01*
X5849467Y3751072D01*
X5861405Y3744518D01*
X5874156Y3739642D01*
X5887415Y3736492D01*
G37*
G36*
X8106816Y167081D02*
G01*
X8122412Y167081D01*
X8128711Y167792D01*
X8134197Y169722D01*
X8139074Y172770D01*
X8143189Y176885D01*
X8146237Y181762D01*
X8148167Y187248D01*
X8148878Y193548D01*
X8148878Y204114D01*
X8106816Y204114D01*
G37*
G36*
X8033562Y167081D02*
G01*
X8049107Y167081D01*
X8049107Y204114D01*
X8007045Y204114D01*
X8007045Y193548D01*
X8007756Y187248D01*
X8009686Y181762D01*
X8012785Y176885D01*
X8016849Y172770D01*
X8021777Y169722D01*
X8027212Y167792D01*
G37*
G36*
X9252813Y167081D02*
G01*
X9268409Y167081D01*
X9274708Y167792D01*
X9280194Y169722D01*
X9285071Y172770D01*
X9289186Y176885D01*
X9292234Y181762D01*
X9294164Y187248D01*
X9294876Y193548D01*
X9294876Y204114D01*
X9252813Y204114D01*
G37*
G36*
X9179560Y167081D02*
G01*
X9195104Y167081D01*
X9195104Y204114D01*
X9153042Y204114D01*
X9153042Y193548D01*
X9153753Y187248D01*
X9155684Y181762D01*
X9158782Y176885D01*
X9162846Y172770D01*
X9167774Y169722D01*
X9173210Y167792D01*
G37*
G36*
X7646111Y1533398D02*
G01*
X7668768Y1533398D01*
X7691323Y1535328D01*
X7713624Y1539138D01*
X7735519Y1544828D01*
X7756855Y1552397D01*
X7777480Y1561693D01*
X7797241Y1572768D01*
X7815986Y1585417D01*
X7833614Y1599641D01*
X7849920Y1615287D01*
X7864906Y1632305D01*
X7878368Y1650492D01*
X7890205Y1669745D01*
X7900416Y1689963D01*
X7908848Y1710943D01*
X7915452Y1732584D01*
X7920228Y1754733D01*
X7923123Y1777187D01*
X7924088Y1799793D01*
X7923123Y1822399D01*
X7920228Y1844852D01*
X7915452Y1866950D01*
X7908848Y1888591D01*
X7900416Y1909622D01*
X7890205Y1929841D01*
X7878368Y1949094D01*
X7864906Y1967280D01*
X7849920Y1984298D01*
X7833614Y1999945D01*
X7815986Y2014169D01*
X7797241Y2026818D01*
X7777480Y2037842D01*
X7756855Y2047189D01*
X7735519Y2054707D01*
X7713624Y2060448D01*
X7691323Y2064257D01*
X7668768Y2066188D01*
X7646111Y2066188D01*
X7623556Y2064257D01*
X7601254Y2060448D01*
X7579359Y2054707D01*
X7558024Y2047189D01*
X7537399Y2037842D01*
X7517638Y2026818D01*
X7498892Y2014169D01*
X7481265Y1999945D01*
X7464958Y1984298D01*
X7450023Y1967280D01*
X7436561Y1949094D01*
X7424674Y1929841D01*
X7414463Y1909622D01*
X7406030Y1888591D01*
X7399426Y1866950D01*
X7394651Y1844852D01*
X7391755Y1822399D01*
X7390841Y1799793D01*
X7391755Y1777187D01*
X7394651Y1754733D01*
X7399426Y1732584D01*
X7406030Y1710943D01*
X7414463Y1689963D01*
X7424674Y1669745D01*
X7436561Y1650492D01*
X7450023Y1632305D01*
X7464958Y1615287D01*
X7481265Y1599641D01*
X7498892Y1585417D01*
X7517638Y1572768D01*
X7537399Y1561693D01*
X7558024Y1552397D01*
X7579359Y1544828D01*
X7601254Y1539138D01*
X7623556Y1535328D01*
G37*

%LPD*%
D10*
X10016490Y3605298D02*
G01*
X10490200Y3606800D01*
X10934700Y3238500D01*
X10934700Y2832100D01*
X11099800Y2679700D01*
X11107912Y2675112D01*
X11422311Y2675112D01*
X9223984Y337997D02*
G01*
X9085402Y337997D01*
X9080500Y342900D01*
X10007970Y2219982D02*
G01*
X10006985Y2218994D01*
X9876993Y2218994D01*
X8672476Y4047289D02*
G01*
X8672476Y3925923D01*
X8993098Y3605301D01*
X9865817Y3605301D01*
D11*
X5652922Y3357067D02*
G01*
X5985967Y3357067D01*
X6121400Y3492500D01*
X6121400Y3759200D01*
X6299200Y3937000D01*
X6819900Y3937000D01*
X7188200Y3568700D01*
X8683277Y3568700D01*
X8799476Y3452500D01*
X8799476Y3306295D01*
X6844284Y3166618D02*
G01*
X7170165Y3492500D01*
X8603983Y3492992D01*
X8671981Y3428992D01*
X8672575Y3306318D01*
D12*
X8926476Y3306295D02*
G01*
X9015882Y3395700D01*
X9321800Y3395700D01*
X9675980Y3443993D02*
G01*
X9627687Y3395700D01*
X9321800Y3395700D01*
D11*
X8877300Y2934850D02*
G01*
X8877300Y876300D01*
X6007100Y6985000D02*
G01*
X6134100Y6858000D01*
X6134100Y6743700D01*
X6057900Y6667500D01*
X6057900Y5410200D01*
X5930900Y5283200D01*
X5829300Y5283200D01*
X5778500Y5232400D01*
X5778500Y4127500D01*
X5816600Y4089400D01*
X8026400Y4089400D01*
X8089900Y4025900D01*
X6400800Y8763000D02*
G01*
X6400987Y5263989D01*
X6106988Y5028989D01*
X6110986Y4650994D02*
G01*
X6304279Y4457700D01*
X6731000Y4457700D01*
X6845300Y4343400D01*
X6841985Y3297994D02*
G01*
X6808988Y3297994D01*
X6643989Y3132996D01*
X6595999Y3132996D01*
X8013700Y3937000D02*
G01*
X7912100Y4038600D01*
X5753100Y4038600D01*
X5727700Y4064000D01*
X5727700Y5270500D01*
X5803900Y5346700D01*
X5918200Y5346700D01*
X6007100Y5435600D01*
X6007100Y6794500D01*
X9675875Y3443986D02*
G01*
X9677400Y3073400D01*
X9804400Y2946400D01*
X10515600Y2946400D01*
X10800588Y2661412D01*
X10800588Y2609087D01*
X8013700Y3340100D02*
G01*
X8047504Y3306295D01*
X8545476Y3306295D01*
X8541981Y3082211D02*
G01*
X8541981Y3302800D01*
X8545476Y3306295D01*
X8252053Y927201D02*
G01*
X8365185Y927201D01*
X8541981Y1103998D01*
X8541981Y3082211D01*
X8926476Y3306295D02*
G01*
X8877300Y3257118D01*
X8877300Y2934850D01*
X11422311Y2565130D02*
G01*
X11237841Y2565130D01*
X11193978Y2608994D01*
X10800494Y2608994D01*
X10502900Y2311400D01*
X10502900Y2273300D01*
X10439400Y2222500D01*
X10429214Y2219985D01*
X10211986Y2219985D01*
X11626341Y2565145D02*
G01*
X11626341Y2482342D01*
X11544300Y2400300D01*
X11252200Y2400300D01*
X11112500Y2540000D01*
X10820400Y2540000D01*
X10591800Y2311400D01*
X10591800Y2235200D01*
X10463022Y2109978D01*
X10212070Y2109978D01*
X9639300Y228600D02*
G01*
X9638715Y228015D01*
X9427972Y228015D01*
X9427972Y338000D02*
G01*
X9759980Y338000D01*
X9825979Y403999D01*
X9825979Y776998D01*
X9726678Y876300D01*
X9677400Y876300D01*
X8281924Y338073D02*
G01*
X8706865Y338073D01*
X8770874Y402081D01*
X8770874Y769873D01*
X8877300Y876300D01*
X9677400Y876300D01*
X8877300Y1001776D02*
G01*
X9002268Y876300D01*
X8420100Y228600D02*
G01*
X8419515Y228015D01*
X8281974Y228015D01*
X8077987Y337997D02*
G01*
X7940492Y337997D01*
X7937500Y340989D01*
X6944977Y2883999D02*
G01*
X6944977Y3020677D01*
X7086600Y3162300D01*
X7454900Y3162300D01*
X7658100Y2959100D01*
X7658100Y2349500D01*
X7848600Y2159000D01*
X7975600Y2159000D01*
X8039100Y2095500D01*
X8039100Y1968500D01*
X6834992Y2679984D02*
G01*
X6834992Y2402692D01*
X6743700Y2324100D01*
X6740601Y2321001D01*
X6593001Y2321001D01*
X6388994Y2430983D02*
G01*
X6268516Y2430983D01*
X6172200Y2527300D01*
X6083300Y2527300D01*
X6018987Y2591612D01*
X6018987Y2672994D01*
X6592999Y2430980D02*
G01*
X6445879Y2578100D01*
X6299200Y2578100D01*
X6204313Y2672986D01*
X6128969Y2672986D01*
X6592999Y2430980D02*
G01*
X6692900Y2530881D01*
X6692900Y2717800D01*
X6834987Y2859887D01*
X6834987Y2883992D01*
X6718300Y2997200D02*
G01*
X6667500Y2946400D01*
X6667500Y2908300D01*
X6391986Y3132996D02*
G01*
X6527782Y2997200D01*
X6718300Y2997200D01*
X6831507Y2883992D01*
X6834987Y2883992D01*
X6128969Y2672986D02*
G01*
X6261100Y2805117D01*
X6261100Y3073400D01*
X6320696Y3132996D01*
X6391986Y3132996D01*
X6128969Y2877007D02*
G01*
X6128969Y3093674D01*
X6278265Y3242970D01*
X6391981Y3242970D01*
X5600700Y8864600D02*
G01*
X5593600Y8871699D01*
X5593600Y9006311D01*
X5703595Y9006306D02*
G01*
X5803900Y8906002D01*
X5803900Y8712200D01*
X8092739Y4124652D02*
G01*
X8067339Y4150052D01*
X5870239Y4150052D01*
X5832139Y4188152D01*
X5832139Y5166052D01*
X5882939Y5216852D01*
X5946439Y5216852D01*
X6124239Y5394652D01*
X6124239Y6626552D01*
X6187739Y6690052D01*
X6187739Y7045652D01*
X6060739Y7172652D01*
X6009939Y7172652D01*
D16*
G01*
X6007100Y7175500D03*
G01*
X6007100Y6985000D03*
G01*
X6007100Y6794500D03*
G36*
X11581317Y2600129D02*
G01*
X11671317Y2600129D01*
X11671317Y2530129D01*
X11581317Y2530129D01*
G37*
G36*
X11581315Y2710121D02*
G01*
X11671317Y2710121D01*
X11671317Y2640121D01*
X11581315Y2640121D01*
G37*
G36*
X11377317Y2710111D02*
G01*
X11467317Y2710111D01*
X11467317Y2640111D01*
X11377317Y2640111D01*
G37*
G36*
X11377317Y2600129D02*
G01*
X11467317Y2600129D01*
X11467317Y2530129D01*
X11377317Y2530129D01*
G37*
D17*
G01*
X10007981Y2219985D03*
G01*
X10211968Y2110003D03*
G01*
X10211968Y2219985D03*
G01*
X10007981Y2110003D03*
G01*
X9223984Y337997D03*
G01*
X9223984Y227990D03*
G01*
X9427972Y228015D03*
G01*
X9427972Y337997D03*
G01*
X8077987Y337997D03*
G01*
X8077987Y227990D03*
G01*
X8281974Y228015D03*
G01*
X8281974Y337997D03*
D18*
G01*
X6834987Y2680004D03*
G01*
X6944995Y2680004D03*
G01*
X6944969Y2883992D03*
G01*
X6834987Y2883992D03*
D17*
G01*
X6388988Y2430983D03*
G01*
X6388988Y2321001D03*
G01*
X6592976Y2321001D03*
G01*
X6592976Y2430983D03*
D18*
G01*
X6128969Y2876981D03*
G01*
X6018987Y2876981D03*
G01*
X6018987Y2672994D03*
G01*
X6128969Y2672994D03*
G36*
X6550987Y3168002D02*
G01*
X6640987Y3168002D01*
X6640987Y3098002D01*
X6550987Y3098002D01*
G37*
G36*
X6550985Y3277994D02*
G01*
X6640987Y3277994D01*
X6640987Y3207994D01*
X6550985Y3207994D01*
G37*
G36*
X6346987Y3277984D02*
G01*
X6436987Y3277984D01*
X6436987Y3207984D01*
X6346987Y3207984D01*
G37*
G36*
X6346987Y3168002D02*
G01*
X6436987Y3168002D01*
X6436987Y3098002D01*
X6346987Y3098002D01*
G37*
G01*
X5703595Y9210319D03*
G01*
X5593588Y9210319D03*
G01*
X5593613Y9006306D03*
G01*
X5703595Y9006306D03*
G36*
X9976154Y3562098D02*
G01*
X9976154Y3648499D01*
X10056802Y3648499D01*
X10056802Y3562098D01*
G37*
G36*
X9906152Y3562098D02*
G01*
X9906152Y3648499D01*
X9825504Y3648499D01*
X9825504Y3562098D01*
G37*
G36*
X8964582Y3971091D02*
G01*
X8888382Y3971091D01*
X8888382Y4123491D01*
X8964582Y4123491D01*
G37*
G36*
X8837582Y3971091D02*
G01*
X8761382Y3971091D01*
X8761382Y4123491D01*
X8837582Y4123491D01*
G37*
G36*
X8710582Y3971091D02*
G01*
X8634382Y3971091D01*
X8634382Y4123491D01*
X8710582Y4123491D01*
G37*
G36*
X8583582Y3971091D02*
G01*
X8507382Y3971091D01*
X8507382Y4123491D01*
X8583582Y4123491D01*
G37*
G36*
X8507382Y3382497D02*
G01*
X8583582Y3382497D01*
X8583582Y3230097D01*
X8507382Y3230097D01*
G37*
G36*
X8634382Y3382497D02*
G01*
X8710582Y3382497D01*
X8710582Y3230097D01*
X8634382Y3230097D01*
G37*
G36*
X8761382Y3382497D02*
G01*
X8837582Y3382497D01*
X8837582Y3230097D01*
X8761382Y3230097D01*
G37*
G36*
X8888382Y3382497D02*
G01*
X8964582Y3382497D01*
X8964582Y3230097D01*
X8888382Y3230097D01*
G37*
G36*
X9171304Y3855694D02*
G01*
X9171304Y4135704D01*
X9472295Y4135704D01*
X9472295Y3855694D01*
G37*
G36*
X9171304Y3255695D02*
G01*
X9171304Y3535705D01*
X9472295Y3535705D01*
X9472295Y3255695D01*
G37*
D16*
G01*
X8252053Y927201D03*
G01*
X9626295Y1343456D03*
G01*
X10042245Y3105505D03*
G01*
X11281181Y3458286D03*
G01*
X6112662Y2412187D03*
G01*
X6844182Y3166567D03*
G01*
X5652922Y3357067D03*
G01*
X5904382Y3837127D03*
G36*
X11073978Y4825989D02*
G01*
X11373977Y4825989D01*
X11373977Y4525990D01*
X11073978Y4525990D01*
G37*
G36*
X6278986Y5086990D02*
G01*
X6578986Y5086990D01*
X6578986Y4686990D01*
X6278986Y4686990D01*
G37*
D13*
G01*
X9876993Y2218994D03*
G01*
X9639300Y228600D03*
G01*
X9080500Y342900D03*
G01*
X8420100Y228600D03*
G01*
X8039100Y1968500D03*
G01*
X7937500Y340995D03*
G01*
X5600700Y8864600D03*
G01*
X6400800Y8763000D03*
G01*
X6845300Y4343400D03*
D14*
G01*
X6841997Y3297986D03*
D15*
G01*
X9675977Y3443986D03*
G01*
X6667500Y2908300D03*
G01*
X8877300Y2934843D03*
D14*
G01*
X9939274Y4343400D03*
G01*
X5803900Y8712200D03*
G01*
X8089900Y4025900D03*
G01*
X8089900Y4127500D03*
G01*
X8013700Y3937000D03*
G01*
X8013700Y3340100D03*
G01*
X8864600Y571500D03*
G01*
X7136333Y4453483D03*
G01*
X6110986Y4650994D03*
G01*
X6106998Y5028996D03*
G01*
X7010400Y3505200D03*
G01*
X7175500Y3340100D03*
G01*
X8661400Y927100D03*
G01*
X7213600Y3733800D03*
G01*
X8420100Y1892300D03*
G01*
X8991600Y1892300D03*
G01*
X9017000Y1219200D03*
M02*
