G04 Layer: TopSolderMaskLayer*
G04 EasyEDA v6.4.20.5, 2021-08-18T22:14:52--7:00*
G04 eca6c54442ec4921a630a3887de3cdb3,1286d1f709c949e68cfeef46812bcf49,10*
G04 Gerber Generator version 0.2*
G04 Scale: 100 percent, Rotated: No, Reflected: No *
G04 Dimensions in millimeters *
G04 leading zeros omitted , absolute positions ,4 integer and 5 decimal *
%FSLAX45Y45*%
%MOMM*%

%ADD27C,1.7272*%

%LPD*%
D27*
G01*
X6007100Y7175500D03*
G01*
X6007100Y6985000D03*
G01*
X6007100Y6794500D03*
G36*
X11571224Y2519934D02*
G01*
X11571224Y2610357D01*
X11681459Y2610357D01*
X11681459Y2519934D01*
G37*
G36*
X11571224Y2629915D02*
G01*
X11571224Y2720339D01*
X11681459Y2720339D01*
X11681459Y2629915D01*
G37*
G36*
X11367261Y2629915D02*
G01*
X11367261Y2720339D01*
X11477497Y2720339D01*
X11477497Y2629915D01*
G37*
G36*
X11367261Y2519934D02*
G01*
X11367261Y2610357D01*
X11477497Y2610357D01*
X11477497Y2519934D01*
G37*
G36*
X9952736Y2174747D02*
G01*
X9952736Y2265171D01*
X10063225Y2265171D01*
X10063225Y2174747D01*
G37*
G36*
X10156697Y2064765D02*
G01*
X10156697Y2155189D01*
X10267188Y2155189D01*
X10267188Y2064765D01*
G37*
G36*
X10156697Y2174747D02*
G01*
X10156697Y2265171D01*
X10267188Y2265171D01*
X10267188Y2174747D01*
G37*
G36*
X9952736Y2064765D02*
G01*
X9952736Y2155189D01*
X10063225Y2155189D01*
X10063225Y2064765D01*
G37*
G36*
X9168891Y292862D02*
G01*
X9168891Y383031D01*
X9279127Y383031D01*
X9279127Y292862D01*
G37*
G36*
X9168891Y182879D02*
G01*
X9168891Y273050D01*
X9279127Y273050D01*
X9279127Y182879D01*
G37*
G36*
X9372854Y182879D02*
G01*
X9372854Y273050D01*
X9483090Y273050D01*
X9483090Y182879D01*
G37*
G36*
X9372854Y292862D02*
G01*
X9372854Y383031D01*
X9483090Y383031D01*
X9483090Y292862D01*
G37*
G36*
X8022843Y292862D02*
G01*
X8022843Y383031D01*
X8133079Y383031D01*
X8133079Y292862D01*
G37*
G36*
X8022843Y182879D02*
G01*
X8022843Y273050D01*
X8133079Y273050D01*
X8133079Y182879D01*
G37*
G36*
X8226806Y182879D02*
G01*
X8226806Y273050D01*
X8337041Y273050D01*
X8337041Y182879D01*
G37*
G36*
X8226806Y292862D02*
G01*
X8226806Y383031D01*
X8337041Y383031D01*
X8337041Y292862D01*
G37*
G36*
X6789927Y2624836D02*
G01*
X6789927Y2735071D01*
X6880097Y2735071D01*
X6880097Y2624836D01*
G37*
G36*
X6899909Y2624836D02*
G01*
X6899909Y2735071D01*
X6990079Y2735071D01*
X6990079Y2624836D01*
G37*
G36*
X6899909Y2828797D02*
G01*
X6899909Y2939034D01*
X6990079Y2939034D01*
X6990079Y2828797D01*
G37*
G36*
X6789927Y2828797D02*
G01*
X6789927Y2939034D01*
X6880097Y2939034D01*
X6880097Y2828797D01*
G37*
G36*
X6333743Y2385821D02*
G01*
X6333743Y2476245D01*
X6444234Y2476245D01*
X6444234Y2385821D01*
G37*
G36*
X6333743Y2275839D02*
G01*
X6333743Y2366263D01*
X6444234Y2366263D01*
X6444234Y2275839D01*
G37*
G36*
X6537706Y2275839D02*
G01*
X6537706Y2366263D01*
X6648195Y2366263D01*
X6648195Y2275839D01*
G37*
G36*
X6537706Y2385821D02*
G01*
X6537706Y2476245D01*
X6648195Y2476245D01*
X6648195Y2385821D01*
G37*
G36*
X6083808Y2821939D02*
G01*
X6083808Y2932176D01*
X6174231Y2932176D01*
X6174231Y2821939D01*
G37*
G36*
X5973825Y2821939D02*
G01*
X5973825Y2932176D01*
X6064250Y2932176D01*
X6064250Y2821939D01*
G37*
G36*
X5973825Y2617723D02*
G01*
X5973825Y2728213D01*
X6064250Y2728213D01*
X6064250Y2617723D01*
G37*
G36*
X6083808Y2617723D02*
G01*
X6083808Y2728213D01*
X6174231Y2728213D01*
X6174231Y2617723D01*
G37*
G36*
X6540754Y3087878D02*
G01*
X6540754Y3178047D01*
X6651243Y3178047D01*
X6651243Y3087878D01*
G37*
G36*
X6540754Y3197860D02*
G01*
X6540754Y3288029D01*
X6651243Y3288029D01*
X6651243Y3197860D01*
G37*
G36*
X6336791Y3197860D02*
G01*
X6336791Y3288029D01*
X6447027Y3288029D01*
X6447027Y3197860D01*
G37*
G36*
X6336791Y3087878D02*
G01*
X6336791Y3178047D01*
X6447027Y3178047D01*
X6447027Y3087878D01*
G37*
G36*
X5658358Y9155176D02*
G01*
X5658358Y9265412D01*
X5748781Y9265412D01*
X5748781Y9155176D01*
G37*
G36*
X5548375Y9155176D02*
G01*
X5548375Y9265412D01*
X5638800Y9265412D01*
X5638800Y9155176D01*
G37*
G36*
X5548375Y8951213D02*
G01*
X5548375Y9061450D01*
X5638800Y9061450D01*
X5638800Y8951213D01*
G37*
G36*
X5658358Y8951213D02*
G01*
X5658358Y9061450D01*
X5748781Y9061450D01*
X5748781Y8951213D01*
G37*
G36*
X9971024Y3557015D02*
G01*
X9971024Y3653536D01*
X10061956Y3653536D01*
X10061956Y3557015D01*
G37*
G36*
X9820402Y3557015D02*
G01*
X9820402Y3653536D01*
X9911334Y3653536D01*
X9911334Y3557015D01*
G37*
G36*
X8878315Y3960876D02*
G01*
X8878315Y4133595D01*
X8974836Y4133595D01*
X8974836Y3960876D01*
G37*
G36*
X8751315Y3960876D02*
G01*
X8751315Y4133595D01*
X8847836Y4133595D01*
X8847836Y3960876D01*
G37*
G36*
X8624315Y3960876D02*
G01*
X8624315Y4133595D01*
X8720836Y4133595D01*
X8720836Y3960876D01*
G37*
G36*
X8497315Y3960876D02*
G01*
X8497315Y4133595D01*
X8593836Y4133595D01*
X8593836Y3960876D01*
G37*
G36*
X8497315Y3219957D02*
G01*
X8497315Y3392678D01*
X8593836Y3392678D01*
X8593836Y3219957D01*
G37*
G36*
X8624315Y3219957D02*
G01*
X8624315Y3392678D01*
X8720836Y3392678D01*
X8720836Y3219957D01*
G37*
G36*
X8751315Y3219957D02*
G01*
X8751315Y3392678D01*
X8847836Y3392678D01*
X8847836Y3219957D01*
G37*
G36*
X8878315Y3219957D02*
G01*
X8878315Y3392678D01*
X8974836Y3392678D01*
X8974836Y3219957D01*
G37*
G36*
X9166352Y3850639D02*
G01*
X9166352Y4140707D01*
X9477502Y4140707D01*
X9477502Y3850639D01*
G37*
G36*
X9166352Y3250692D02*
G01*
X9166352Y3540760D01*
X9477502Y3540760D01*
X9477502Y3250692D01*
G37*
G01*
X8252053Y927201D03*
G01*
X9626295Y1343456D03*
G01*
X10042245Y3105505D03*
G01*
X11281181Y3458286D03*
G01*
X6112662Y2412187D03*
G01*
X6844182Y3166567D03*
G01*
X5652922Y3357067D03*
G01*
X5904382Y3837127D03*
G36*
X11063731Y4515865D02*
G01*
X11063731Y4836160D01*
X11384025Y4836160D01*
X11384025Y4515865D01*
G37*
G36*
X6268720Y4676902D02*
G01*
X6268720Y5097271D01*
X6589268Y5097271D01*
X6589268Y4676902D01*
G37*
M02*
